<svg fill="none" height="133" viewBox="0 0 696 133" width="696" xmlns="http://www.w3.org/2000/svg" xmlns:xlink="http://www.w3.org/1999/xlink"><mask id="a" fill="#fff"><path clip-rule="evenodd" d="m103.68 25.1822c.865.3186 1.471 1.1177 1.55 2.0479.699 8.2017-2.198 16.2395-7.9413 22.0518-7.8749 7.9644-19.3726 10.067-29.1693 6.3281-.3327.4147-.6856.8187-1.0656 1.2049l-41.6914 45.4361c-.0207.024-.0414.045-.064.066-5.2409 5.303-13.7077 5.367-18.95031.065-5.24179-5.3029-5.24179-13.9303 0-19.2327.01109-.01.02154-.0206.03183-.0312.00549-.0056.01093-.0111.0164-.0165l44.57168-42.5428c.3925-.3927.7904-.7568 1.1937-1.1005-3.6896-9.907-1.606-21.5297 6.2619-29.48892 5.7448-5.8118 13.6905-8.74046 21.7998-8.03372.9215.08058 1.7096.69192 2.0276 1.56963.3148.87596.1016 1.85842-.5518 2.51877l-13.3529 13.50664 4.6869 14.9728 14.8026 4.7409 13.3522-13.5055c.653-.6591 1.624-.8773 2.492-.5567zm-46.5967 3.8359c0-.8284-.6716-1.5-1.5-1.5s-1.5.6716-1.5 1.5c0 4.4534 1.2818 9.1667 2.1689 11.6954-12.7338 12.3321-38.0582 36.8951-42.8135 41.6534-3.0126 3.0145-5.29438 5.5869-6.47349 7.9467-.60344 1.2076-.95703 2.4322-.93198 3.6854.02537 1.2691.43687 2.4497 1.17651 3.5599.45933.6894 1.39058.876 2.08001.4166.68943-.4593.87595-1.3905.41663-2.08-.46869-.7034-.66136-1.3364-.67375-1.9565-.01271-.6361.16235-1.3762.6162-2.2845.93547-1.8721 2.88277-4.136 5.91187-7.167 4.822-4.825 30.9895-30.2031 43.4827-42.3009l.7229-.7-.3735-.9343c-.7665-1.9175-2.3095-6.9586-2.3095-11.5342z" fill="#fff" fill-rule="evenodd"/></mask><g fill="#6e5590"><path d="m113.375 96.1566 3.565-2.1869 26.916-65.2592 19.554-1.7265 23.004 62.1517c.767 1.995 1.304 3.2994 1.611 3.9133.307.6138.882 1.4578 1.725 2.5321l2.071 2.6472-.691 8.1717h-32.321l-1.15-10.934 8.166-2.0717-3.68-11.6247-23.35.3453-2.531 7.251c-.23.6906-.345 1.2661-.345 1.7265 0 .5371.077.9591.23 1.266.23.2302.575.422 1.035.5755l7.937 3.3378-1.15 10.1283h-30.136zm37.612-49.4912-7.591 22.0984 14.838.6906z"/><path d="m195.722 94.6603 12.422-2.3019v-40.4056c0-1.5346-.153-2.4938-.46-2.8774-.23-.4604-1.074-1.1126-2.531-1.9566l-9.431-5.1793 1.035-7.5964 21.394-6.2151 9.432.8056v59.7417c0 1.7648.077 2.8774.23 3.3378.23.4604.882.9591 1.955 1.4963l8.167 4.1434-.345 8.7472h-41.293z"/><path d="m242.45 94.6603 12.422-2.3019v-40.4056c0-1.5346-.153-2.4938-.46-2.8774-.23-.4604-1.073-1.1126-2.53-1.9566l-9.432-5.1793 1.035-7.5964 21.394-6.2151 9.432.8056v59.7417c0 1.7648.077 2.8774.23 3.3378.23.4604.882.9591 1.956 1.4963l8.166 4.1434-.345 8.7472h-41.293z"/><path d="m305.782 132.757c-5.521-3.683-10.429-8.44-14.723-14.272l12.768-12.545-16.679-43.9669c-.843-2.0717-1.418-3.4145-1.725-4.0283-.307-.6139-.882-1.4579-1.726-2.5321l-1.955-2.5321.575-6.6756h29.446l1.15 9.7832-6.671 1.6113 9.432 28.889 10.582-26.472c.154-.4604.23-.8057.23-1.0359 0-.6905-.306-1.1509-.92-1.3811l-5.406-2.3019 1.035-9.0926h21.855l1.035 9.3228-14.723 32.1117c-5.291 11.5863-9.662 20.6785-13.113 27.2775s-6.94 12.546-10.467 17.84z"/><path d="m376.649 106.86c-8.282 0-16.563-.306-24.845-.92l-.575-11.2797 8.397-2.3019v-43.8515c0-1.995-.154-3.2994-.461-3.9132-.306-.6906-1.111-1.3044-2.415-1.8415l-5.981-3.3378.69-9.553c12.422-1.6113 23.081-2.417 31.976-2.417 10.889 0 18.864 1.6114 23.925 4.834 5.061 3.2227 7.592 8.3253 7.592 15.3078 0 3.4528-.537 6.5221-1.61 9.2076-1.074 2.6089-2.723 4.9875-4.946 7.136 7.668 3.4528 11.502 9.0542 11.502 16.8039 0 6.9058-1.917 12.4687-5.751 16.6889-3.834 4.2204-9.471 6.9824-16.909 8.2874-2.76.767-9.623 1.15-20.589 1.15zm16.909-46.6133c.766-1.995 1.15-5.3328 1.15-10.0133 0-3.2227-.767-5.6013-2.301-7.136-1.457-1.5346-3.719-2.3786-6.786-2.5321-1.994 0-3.988.0768-5.981.2302v19.221c1.303-.0767 2.99-.1151 5.061-.1151 3.144 0 6.096.1151 8.857.3453zm-4.831 32.3419c4.37 0 7.476-.3837 9.316-1.151.767-3.0692 1.151-5.7931 1.151-8.1718 0-3.8365-.997-6.5604-2.991-8.1718-1.994-1.6113-5.368-2.417-10.122-2.417-.997 0-2.262.0768-3.796.2302l-2.645.1151v18.7606c2.684.5371 5.713.8057 9.087.8057z"/><path d="m456.18 107.781c-8.972 0-15.912-2.724-20.819-8.1716-4.831-5.4478-7.247-12.9674-7.247-22.5587 0-6.6756 1.189-12.392 3.566-17.1493 2.377-4.834 5.751-8.5171 10.122-11.0492s9.47-3.7981 15.298-3.7981c8.665 0 15.298 2.7623 19.899 8.2869 4.678 5.5246 6.901 13.3894 6.671 23.5946l-34.967 6.4453c1.074 3.2227 2.569 5.6014 4.486 7.136 1.994 1.4579 4.601 2.1868 7.822 2.1868 2.224 0 4.869-.3069 7.936-.9208 3.068-.6905 6.173-1.6113 9.317-2.7623l2.646 11.3944c-2.837 2.149-6.518 3.913-11.042 5.295-4.525 1.381-9.087 2.071-13.688 2.071zm8.627-40.5135c-.154-2.9157-.997-5.0258-2.531-6.3302-1.457-1.3812-3.527-2.0717-6.211-2.0717-2.224 0-4.333.3069-6.327.9207-1.61 3.7598-2.338 7.8265-2.185 12.2002z"/><path d="m489.362 95.3509 7.132-2.0717v-27.8532c0-1.6881-.115-2.7623-.345-3.2227-.23-.5371-.844-1.1126-1.841-1.7264l-5.061-2.7623.345-8.6322 2.531-.4604c10.045-1.995 17.292-3.0692 21.739-3.2226.614 1.6113 1.112 3.3761 1.496 5.2944 4.677-2.1485 8.473-3.6064 11.387-4.3737 2.991-.844 5.79-1.266 8.397-1.266 12.192 0 18.288 7.2894 18.288 21.8681v22.5588c0 1.6114.115 2.6856.346 3.2227.23.5371.881 1.1126 1.955 1.7264l5.521 3.2227-.46 8.6322h-31.747l-.575-10.9341 5.636-1.6114v-21.753c0-3.4529-.115-5.8699-.345-7.2511-.23-1.3811-.881-2.4553-1.955-3.2226-.997-.7673-2.799-1.151-5.406-1.151-2.761 0-6.25.422-10.467 1.266v27.8532c0 1.6114.115 2.6856.345 3.2227s.843 1.1126 1.84 1.7264l5.636 3.2227-.46 8.6322h-33.357z"/><path d="m592.096 107.896c-8.895 0-15.796-2.724-20.704-8.1715-4.908-5.5246-7.361-13.1209-7.361-22.7889 0-10.0517 2.607-17.8782 7.821-23.4795 5.291-5.6014 12.499-8.402 21.625-8.402 6.901 0 14.301 1.5729 22.199 4.7189-.153 2.2252-.498 5.1793-1.035 8.8624-.537 3.6063-1.112 6.9441-1.725 10.0133l-7.707.6906-7.131-9.0926c-1.918-.3837-4.065-.5755-6.442-.5755-1.917 0-3.681.1151-5.291.3453-1.764 3.3761-2.645 8.1334-2.645 14.2719 0 6.2919 1.111 10.9724 3.335 14.0417 2.224 2.9924 5.598 4.4887 10.122 4.4887 2.147 0 4.755-.3069 7.822-.9208 3.067-.6906 6.211-1.6497 9.432-2.8774l2.76 11.5094c-3.067 2.149-6.901 3.913-11.502 5.295-4.524 1.381-9.048 2.071-13.573 2.071z"/><path d="m621.909 95.466 7.131-2.0717v-55.1309c0-1.688-.115-2.7623-.345-3.2227-.23-.5371-.843-1.1125-1.84-1.7264l-5.061-2.6472.345-8.7473 3.566-.5754c10.122-1.8416 17.215-2.8391 21.279-2.9925.69 1.8415 1.189 3.8365 1.495 5.9849v26.2419c4.218-1.9183 7.784-3.2994 10.698-4.1435 2.99-.9207 5.942-1.3811 8.856-1.3811 11.963 0 17.944 7.2894 17.944 21.8681v22.6739c0 1.6113.115 2.6856.345 3.2227s.882 1.1126 1.956 1.7264l5.521 3.2227-.46 8.6321h-31.747l-.575-10.934 5.636-1.6114v-21.8681c0-3.3762-.115-5.7548-.345-7.136-.153-1.4579-.767-2.5704-1.84-3.3377-1.074-.7673-2.876-1.151-5.406-1.151-2.454 0-5.982.422-10.583 1.266v27.9683c0 1.6113.115 2.6856.346 3.2227.23.5371.843 1.1126 1.84 1.7264l5.636 3.2227-.46 8.6321h-33.357z"/><path clip-rule="evenodd" d="m103.68 25.1822c.865.3186 1.471 1.1177 1.55 2.0479.699 8.2017-2.198 16.2395-7.9413 22.0518-7.8749 7.9644-19.3726 10.067-29.1693 6.3281-.3327.4147-.6856.8187-1.0656 1.2049l-41.6914 45.4361c-.0207.024-.0414.045-.064.066-5.2409 5.303-13.7077 5.367-18.95031.065-5.24179-5.3029-5.24179-13.9303 0-19.2327.01109-.01.02154-.0206.03183-.0312.00549-.0056.01093-.0111.0164-.0165l44.57168-42.5428c.3925-.3927.7904-.7568 1.1937-1.1005-3.6896-9.907-1.606-21.5297 6.2619-29.48892 5.7448-5.8118 13.6905-8.74046 21.7998-8.03372.9215.08058 1.7096.69192 2.0276 1.56963.3148.87596.1016 1.85842-.5518 2.51877l-13.3529 13.50664 4.6869 14.9728 14.8026 4.7409 13.3522-13.5055c.653-.6591 1.624-.8773 2.492-.5567zm-46.5967 3.8359c0-.8284-.6716-1.5-1.5-1.5s-1.5.6716-1.5 1.5c0 4.4534 1.2818 9.1667 2.1689 11.6954-12.7338 12.3321-38.0582 36.8951-42.8135 41.6534-3.0126 3.0145-5.29438 5.5869-6.47349 7.9467-.60344 1.2076-.95703 2.4322-.93198 3.6854.02537 1.2691.43687 2.4497 1.17651 3.5599.45933.6894 1.39058.876 2.08001.4166.68943-.4593.87595-1.3905.41663-2.08-.46869-.7034-.66136-1.3364-.67375-1.9565-.01271-.6361.16235-1.3762.6162-2.2845.93547-1.8721 2.88277-4.136 5.91187-7.167 4.822-4.825 30.9895-30.2031 43.4827-42.3009l.7229-.7-.3735-.9343c-.7665-1.9175-2.3095-6.9586-2.3095-11.5342z" fill-rule="evenodd"/><path d="m105.23 27.2301-.997.0849v.0001zm-1.55-2.0479-.347.938.001.0004zm-6.3913 24.0997.7111.703.0002-.0002zm-29.1693 6.3281.3565-.9342-.6806-.2598-.4559.5683zm-1.0656 1.2049-.7127-.7015-.0123.0125-.0118.0129zm-41.6914 45.4361-.7369-.676-.0087.009-.0086.01zm-.064.066-.6864-.727-.0126.012-.0122.012zm-18.95031.065-.71122.703h.00015zm0-19.2327-.6677-.7444-.02235.02-.02111.0214zm.03183-.0312-.71465-.6994h-.00008zm.0164-.0165-.69045-.7234-.00543.0052-.00536.0053zm44.57168-42.5428.6904.7234.0085-.0081.0084-.0083zm1.1937-1.1005.6486.7611.5328-.4541-.2443-.656zm6.2619-29.48892.7112.70302zm21.7998-8.03372.0871-.996203-.0003-.000025zm2.0276 1.56963.9411-.33819-.0009-.00247zm-.5518 2.51877-.7108-.70339-.0004.00035zm-13.3529 13.50664-.7111-.703-.4229.4277.1797.574zm4.6869 14.9728-.9543.2988.1551.4953.4942.1583zm14.8026 4.7409-.305.9524.5845.1872.4316-.4365zm13.3522-13.5055-.71-.7037-.001.0006zm-44.9358 14.9746.6957.7183.4598-.4453-.2119-.604zm-42.8135 41.6534.7074.7069zm-6.47349 7.9467-.89454-.447zm-.93198 3.6854.9998-.02zm1.17651 3.5599.83222-.5545h-.00001zm2.08001.4166.55446.8323v-.0001zm.41663-2.08.83222-.5544zm-.67375-1.9565.99977-.02zm.6162-2.2845.89457.447zm5.91187-7.167-.7073-.7068zm43.4827-42.3009-.6956-.7184zm.7229-.7.6957.7184.4819-.4667-.249-.6229zm-.3735-.9343-.9286.3711zm46.8332-13.4071c-.112-1.3116-.966-2.4468-2.201-2.9014l-.691 1.8768c.496.1827.853.6456.899 1.1944zm-8.226 22.8395c5.951-6.0219 8.95-14.3484 8.226-22.8396l-1.993.17c.675 7.9121-2.119 15.6614-7.6556 21.2639zm-30.2372 6.5596c10.1538 3.8751 22.0737 1.6968 30.237-6.5594l-1.4222-1.4061c-7.5864 7.6727-18.662 9.6995-28.1017 6.097zm.0037.972c.4075-.414.7827-.844 1.1329-1.2805l-1.56-1.2515c-.3152.3928-.6457.7708-.9983 1.1291zm-41.6673 45.4107 41.6914-45.436-1.4736-1.3522-41.6915 45.4362zm-.1144.118c.0446-.042.0881-.087.1317-.137l-1.5083-1.314c.0007-.001.0018-.002.003-.003s.0016-.002.0008-.001zm-20.34778.04c5.64028 5.705 14.74648 5.628 20.37258-.065l-1.4224-1.406c-4.8557 4.913-12.683 4.965-17.52804.065zm-.00009-20.6387c-5.62694113 5.6919-5.626858 14.9462-.00006 20.6387l1.42244-1.406c-4.85678-4.9134-4.8567-12.9139-.00006-17.8267zm.02826-.0276c-.00282.0029-.00397.0041-.0049.005-.00077.0008-.00037.0004.00076-.0007.00208-.0021.00903-.0089.01934-.0181l1.3354 1.4888c.03938-.0353.07238-.0695.07886-.0762zm.02989-.03c-.01342.0132-.0256.0257-.02981.03l1.4293 1.3989c.00307-.0031.00415-.0042.00497-.005.00063-.0007-.00022.0002-.00198.0019zm44.58242-42.5533-44.57163 42.5428 1.3809 1.4468 44.57163-42.5428zm1.2356-1.1382c-.4217.3593-.8394.7415-1.2524 1.1547l1.4146 1.4139c.372-.3722.7501-.7184 1.135-1.0464zm6.1994-29.43084c-8.1541 8.24864-10.3071 20.28614-6.4879 30.54094l1.8742-.698c-3.56-9.5591-1.5459-20.7671 6.036-28.4369zm22.5977-8.326928c-8.4071-.732691-16.6449 2.304578-22.5978 8.326948l1.4224 1.40602c5.5366-5.60125 13.1903-8.42131 21.0018-7.74052zm2.881 2.225198c-.4485-1.23785-1.5654-2.11016-2.8807-2.225173l-.1742 1.992393c.5278.04616.987.39653 1.1745.91409zm-.7813 3.56283c.9272-.93696 1.2259-2.3255.7822-3.56036l-1.8822.67638c.1858.51706.0582 1.09345-.3215 1.47719zm-13.3524 13.50624 13.3528-13.50659-1.4223-1.40609-13.3528 13.50668zm4.9301 13.9711-4.6869-14.9728-1.9087.5974 4.6869 14.9729zm14.1532 4.0873-14.8025-4.7409-.6101 1.9047 14.8026 4.7409zm12.3362-13.2563-13.3523 13.5056 1.4222 1.4061 13.3531-13.5055zm3.549-.7916c-1.238-.4577-2.622-.1444-3.548.791l1.421 1.4073c.379-.3826.937-.5058 1.434-.3223zm-48.4427 4.2739c.2761 0 .5.2239.5.5h2c0-1.3807-1.1193-2.5-2.5-2.5zm-.5.5c0-.2761.2239-.5.5-.5v-2c-1.3807 0-2.5 1.1193-2.5 2.5zm2.1125 11.3644c-.869-2.4772-2.1125-7.07-2.1125-11.3644h-2c0 4.6124 1.3201 9.4462 2.2253 12.0264zm-43.0497 42.6913c4.7477-4.7508 30.0633-29.3053 42.8018-41.642l-1.3914-1.4367c-12.7291 12.3276-38.0623 36.8991-42.8251 41.6649zm-6.28635 7.6867c1.098-2.1973 3.26865-4.6671 6.28635-7.6867l-1.4147-1.4138c-3.00749 3.0094-5.4005 5.6845-6.66073 8.2066zm-.82672 3.2185c-.02093-1.0474.27309-2.1105.82672-3.2185l-1.78908-.8939c-.65326 1.3073-1.0664 2.6934-1.03724 4.1523zm1.00892 3.0254c-.64942-.9747-.98788-1.9728-1.00892-3.0254l-1.9996.0399c.02969 1.4857.51424 2.8489 1.3441 4.0945zm.69334.1389c-.22981.1531-.54022.091-.69333-.1389l-1.66443 1.109c.76555 1.149 2.31763 1.4599 3.46668.6944zm.13887-.6933c.15312.2298.09094.5402-.13887.6933l1.10892 1.6644c1.14909-.7655 1.45989-2.3176.69439-3.4666zm-.84133-2.491c.01671.8361.28214 1.6517.84133 2.491l1.66444-1.1089c-.3782-.5677-.4981-1.018-.5062-1.4221zm.72146-2.7515c-.5038 1.0083-.73828 1.9099-.72146 2.7515l1.99957-.04c-.0086-.4305.1071-1.0092.511-1.8175zm6.09911-7.4268c-3.0232 3.025-5.08232 5.392-6.09911 7.4268l1.78911.894c.8541-1.7094 2.6896-3.8702 5.7246-6.9071zm43.4944-42.3125c-12.4886 12.0932-38.6649 37.4799-43.4944 42.3125l1.4146 1.4137c4.8145-4.8174 30.9731-30.1871 43.4711-42.2894zm.7229-.7-.7229.7 1.3913 1.4368.7229-.7zm-.6065.1552.3736.9344 1.8571-.7424-.3735-.9343zm-2.3809-11.9053c0 4.7495 1.5884 9.9228 2.3809 11.9053l1.8572-.7423c-.7405-1.8524-2.2381-6.7613-2.2381-11.163z" mask="url(#a)"/></g></svg>