<svg fill="none" height="64" viewBox="0 0 64 64" width="64" xmlns="http://www.w3.org/2000/svg" xmlns:xlink="http://www.w3.org/1999/xlink"><linearGradient id="a" gradientUnits="userSpaceOnUse" x1="26.7418" x2="20.6334" y1="14.7879" y2="18.3146"><stop offset="0" stop-color="#d9d9d9"/><stop offset="1" stop-color="#d9d9d9" stop-opacity="0"/></linearGradient><circle cx="32" cy="32" fill="#f5f5f2" r="32"/><path d="m25.6748 12.3618c1.9771-1.1415 6.1563-3.22484 6.1563-3.22484l2.8189 5.07264-1.9342 1.1962c.5028.5535 1.1661 1.3171 1.4129 1.7513.1553.273.1283.5327.091.8902-.0631.6064-.1555 1.4941.5625 3.2056 1.1413 2.7207 17.5334 29.9968 17.5334 29.9968l-2.3115 1.389-3.89-.0435s.0344-4.2172-.8625-5.7708c-.8969-1.5535-15.3729-25.1389-16.2323-26.4416-.4543-.6886-.8318-1.4519-1.0867-2.0186l-1.2954.8011-.4759-.2668s-1.9538 3.0975-2.961 4.7774-2.597 5.0141-2.597 5.0141-2.5198-1.5108-4.9675-5.3698-3.1617-6.6519-3.1617-6.6519 2.6239-.1771 5.7357-.8753c2.6807-.6014 4.8155-1.866 6.6196-2.9345.29-.1718.5715-.3386.8454-.4967z" fill="#000" opacity=".1"/><g stroke="#6e5590"><path d="m49.6297 51.0786-1.7615 1.0586-3.2583-.0365c-.0012-.0624-.0026-.1298-.0045-.2016-.0109-.4261-.035-1.0117-.0878-1.648-.0526-.6349-.1344-1.3283-.2624-1.9677-.1261-.6296-.3048-1.2488-.5705-1.7089-.9009-1.5605-15.382-25.1546-16.2479-26.467-.4099-.6213-.7587-1.3138-1.0068-1.8573-.0938-.2054-.1724-.3877-.2337-.5347l3.8129-2.3394c.1539.1652.3571.3862.5718.6274.4644.522.9348 1.0869 1.1132 1.4007.042.0739.0594.1482.0533.3008-.0034.0835-.013.1758-.026.3013l-.0002.0011c-.0126.1213-.0274.2649-.036.4267-.0359.6719.038 1.5868.636 3.0123.301.7175 1.562 2.9691 3.2491 5.8913 1.6987 2.9422 3.8558 6.6086 5.9764 10.1887 2.1208 3.5803 4.2059 7.0755 5.7607 9.6755.7774 1.3 1.4223 2.3763 1.8728 3.1276.1834.3058.3346.5578.4494.7491z" fill="#cdc5c4"/><path d="m24.1615 18.8986-.4229-.2668-.0001.0001-.0003.0005-.0011.0017-.0042.0067-.0166.0264-.0639.1013-.2353.3743c-.1991.3169-.4751.757-.7826 1.2497-.6144.9844-1.3568 2.1821-1.8629 3.0263-.5143.8577-1.1709 2.1263-1.6943 3.17-.2628.524-.4939.9952-.6594 1.3354-.0035.0073-.0071.0146-.0106.0219-.2573-.1923-.6117-.4763-1.0314-.862-.9073-.8337-2.1198-2.143-3.3177-4.0317-1.2065-1.9021-1.9838-3.5385-2.4584-4.6951-.2124-.5174-.364-.9387-.4664-1.2445.2859-.028.6606-.0684 1.1042-.1242 1.0561-.133 2.5064-.3542 4.0818-.7077 2.7642-.6202 4.9717-1.9288 6.7735-2.997.2875-.1704.5646-.3347.832-.4891.9766-.5638 2.5056-1.3649 3.798-2.0287.6446-.331 1.2277-.6266 1.6496-.83931.093-.0469.1782-.08978.2544-.12812l2.3544 4.23673-7.3564 4.5497-.2189-.1227-.4141-.2321-.2533.4015z" fill="#6e5590"/><path d="m18.4073 27.9461c-.2573-.1923-.6117-.4763-1.0314-.862-.9073-.8337-2.1198-2.143-3.3177-4.0317-1.2065-1.9021-1.9838-3.5385-2.4584-4.6951-.2124-.5174-.364-.9387-.4664-1.2445.2645-.0259.605-.0624 1.0057-.1119.9195-.1137 2.1588-.2964 3.5273-.5793l4.5774 7.9249c-.4603.8417-.9567 1.8187-1.3491 2.6081-.1923.3867-.3602.7297-.4874.9915z" fill="#e7def2"/><path d="m24.1617 18.8986-.4229-.2668-.0001.0001-.0001.0001-.0004.0008-.0018.0028-.007.0111-.0273.0433-.1038.1648c-.0895.1422-.2176.346-.3722.5926-.2003.3192-.445.7101-.7078 1.1316l-3.0819-5.338c1.3719-.604 2.5751-1.3168 3.6374-1.9459l.0107-.0064c.2905-.1721.5696-.3374.8406-.4939.0176-.0101.0353-.0203.0532-.0306l2.6466 4.5841-1.9998 1.2368-.2189-.1227-.4141-.2321-.2533.4015z" fill="url(#a)" opacity=".6"/></g></svg>