<svg width="155" height="72" viewBox="0 0 155 72" fill="none" xmlns="http://www.w3.org/2000/svg">
<path d="M9.6954 51.7885C6.8005 51.7885 4.55447 50.9026 2.95728 49.1307C1.3601 47.3339 0.561509 44.8632 0.561509 41.7188C0.561509 38.4496 1.41001 35.904 3.10702 34.0823C4.82898 32.2605 7.17484 31.3496 10.1446 31.3496C12.3906 31.3496 14.7989 31.8612 17.3694 32.8844C17.3194 33.6081 17.2071 34.5689 17.0325 35.7668C16.8578 36.9397 16.6706 38.0253 16.4709 39.0235L13.9629 39.2481L11.642 36.2909C11.0181 36.1661 10.3193 36.1037 9.54566 36.1037C8.92176 36.1037 8.34777 36.1411 7.8237 36.216C7.24971 37.3141 6.96272 38.8613 6.96272 40.8578C6.96272 42.9042 7.32458 44.4265 8.0483 45.4247C8.77203 46.398 9.87009 46.8847 11.3425 46.8847C12.0413 46.8847 12.8898 46.7848 13.888 46.5852C14.8862 46.3606 15.9094 46.0486 16.9576 45.6494L17.856 49.3927C16.8578 50.0915 15.61 50.6655 14.1126 51.1147C12.6402 51.5639 11.1678 51.7885 9.6954 51.7885ZM19.3604 47.858L21.9808 47.0718V29.141C21.9808 28.5919 21.9308 28.2426 21.831 28.0928C21.7562 27.9181 21.544 27.731 21.1946 27.5313L19.5475 26.6703L19.7347 23.8253C20.2338 23.7255 20.6207 23.6631 20.8952 23.6382C24.1894 23.0392 26.4853 22.7148 27.783 22.6649C28.0326 23.2389 28.1948 23.8877 28.2697 24.6115V45.8365C28.2697 46.3606 28.3071 46.71 28.382 46.8847C28.4568 47.0594 28.669 47.2465 29.0183 47.4462L30.8526 48.4943L30.7029 51.3019H19.4727L19.3604 47.858ZM41.0975 51.7511C38.1777 51.7511 35.9192 50.8652 34.322 49.0933C32.7497 47.3214 31.9636 44.8757 31.9636 41.7562C31.9636 39.585 32.3504 37.7258 33.1241 36.1786C33.8977 34.6063 34.9958 33.4084 36.4183 32.5849C37.8408 31.7613 39.5003 31.3496 41.397 31.3496C44.217 31.3496 46.3757 32.248 47.8731 34.0448C49.3954 35.8417 50.1191 38.3996 50.0442 41.7188L38.6643 43.8151C39.0137 44.8632 39.5003 45.6369 40.1242 46.136C40.7731 46.6102 41.6216 46.8472 42.6697 46.8472C43.3935 46.8472 44.2545 46.7474 45.2527 46.5478C46.2509 46.3232 47.2616 46.0237 48.2848 45.6494L49.1458 49.3553C48.2225 50.0541 47.0246 50.6281 45.5522 51.0773C44.0798 51.5265 42.5949 51.7511 41.0975 51.7511ZM43.9051 38.5743C43.8552 37.626 43.5806 36.9397 43.0815 36.5155C42.6074 36.0663 41.9335 35.8417 41.0601 35.8417C40.3364 35.8417 39.6501 35.9415 39.0012 36.1411C38.4771 37.364 38.2401 38.6866 38.29 40.1091L43.9051 38.5743ZM57.2871 51.7885C55.5901 51.7885 54.23 51.3268 53.2068 50.4035C52.1836 49.4551 51.672 48.2448 51.672 46.7724C51.672 44.8008 52.6578 43.2536 54.6293 42.1306C56.6258 41.0075 59.5207 40.3712 63.314 40.2214C63.314 39.0485 63.2142 38.1875 63.0145 37.6385C62.8398 37.0645 62.5029 36.6777 62.0038 36.478C61.5296 36.2534 60.7934 36.1411 59.7952 36.1411C58.772 36.1411 58.0483 36.1786 57.624 36.2534L56.0892 39.2856L53.3191 39.0984C52.8949 37.1019 52.5954 35.0306 52.4207 32.8844C53.8182 32.4102 55.3406 32.0359 56.9877 31.7614C58.6597 31.4868 60.2195 31.3496 61.6669 31.3496C64.3122 31.3496 66.2089 31.8737 67.3569 32.9218C68.5048 33.945 69.0788 35.6545 69.0788 38.0503V45.874C69.0788 46.3232 69.1163 46.6351 69.1911 46.8098C69.291 46.9845 69.4906 47.1592 69.7901 47.3339L71.2874 48.1949L71.1377 50.5158C68.2428 51.1896 65.9593 51.5639 64.2873 51.6388C64.2374 51.489 64.1625 51.227 64.0627 50.8527C63.9628 50.4534 63.8755 50.079 63.8006 49.7297C62.8274 50.3536 61.7542 50.8527 60.5813 51.227C59.4333 51.6014 58.3353 51.7885 57.2871 51.7885ZM59.7952 47.5585C60.7934 47.5585 62.0038 47.2216 63.4263 46.5478L63.2766 43.7028C62.6776 43.6529 62.2783 43.6279 62.0787 43.6279C61.4049 43.6279 60.6187 43.7028 59.7203 43.8525C58.8219 43.9773 58.1107 44.127 57.5866 44.3017C57.5117 44.6262 57.4743 44.9256 57.4743 45.2001C57.4743 45.9488 57.6739 46.5353 58.0732 46.9595C58.4975 47.3588 59.0715 47.5585 59.7952 47.5585ZM72.6617 47.7457L74.9451 47.0718V37.9754C74.9451 37.4264 74.9077 37.077 74.8328 36.9272C74.758 36.7525 74.5583 36.5654 74.2339 36.3657L72.5868 35.4673L72.6991 32.6598C73.1234 32.5599 73.4852 32.4976 73.7847 32.4726C76.8044 31.8487 79.0379 31.5118 80.4854 31.4619C80.71 32.1107 80.9221 32.9218 81.1217 33.8951C82.6191 32.7222 83.8919 31.9111 84.94 31.4619H87.0737C87.0488 32.4102 86.9864 33.4459 86.8866 34.5689C86.7867 35.667 86.662 36.5529 86.5122 37.2267C85.6138 37.1768 84.9525 37.1518 84.5282 37.1518C83.4801 37.1518 82.3945 37.2142 81.2715 37.339V45.8365C81.2715 46.3606 81.3089 46.71 81.3838 46.8847C81.4586 47.0594 81.6583 47.2465 81.9827 47.4462L84.2288 48.6441L84.079 51.3019H72.8488L72.6617 47.7457ZM104.998 51.7885C102.104 51.7885 99.8575 50.9026 98.2604 49.1307C96.6632 47.3339 95.8646 44.8632 95.8646 41.7188C95.8646 38.4496 96.7131 35.904 98.4101 34.0823C100.132 32.2605 102.478 31.3496 105.448 31.3496C107.694 31.3496 110.102 31.8612 112.672 32.8844C112.623 33.6081 112.51 34.5689 112.336 35.7668C112.161 36.9397 111.974 38.0253 111.774 39.0235L109.266 39.2481L106.945 36.2909C106.321 36.1661 105.622 36.1037 104.849 36.1037C104.225 36.1037 103.651 36.1411 103.127 36.216C102.553 37.3141 102.266 38.8613 102.266 40.8578C102.266 42.9042 102.628 44.4265 103.351 45.4247C104.075 46.398 105.173 46.8847 106.646 46.8847C107.344 46.8847 108.193 46.7848 109.191 46.5852C110.189 46.3606 111.213 46.0486 112.261 45.6494L113.159 49.3927C112.161 50.0915 110.913 50.6655 109.416 51.1147C107.943 51.5639 106.471 51.7885 104.998 51.7885ZM123.011 51.826C121.014 51.826 119.53 51.2395 118.556 50.0666C117.583 48.8687 117.096 47.0718 117.096 44.6761V37.9754C117.096 37.4264 117.046 37.077 116.947 36.9272C116.872 36.7525 116.66 36.5654 116.31 36.3657L114.626 35.4673L114.813 32.6598C115.162 32.6099 115.412 32.5599 115.562 32.51C115.836 32.4601 116.809 32.2854 118.481 31.986C120.178 31.6865 121.588 31.5118 122.711 31.4619C122.986 32.0858 123.198 32.8095 123.348 33.633V43.0664C123.348 44.1645 123.373 44.9381 123.423 45.3873C123.498 45.8365 123.697 46.1859 124.022 46.4355C124.371 46.6601 124.957 46.7724 125.781 46.7724C126.979 46.7724 128.139 46.5602 129.262 46.136V37.9754C129.262 37.4264 129.225 37.077 129.15 36.9272C129.075 36.7525 128.876 36.5654 128.551 36.3657L126.904 35.4673L127.054 32.6598C129.075 32.2854 130.647 31.9984 131.77 31.7988C132.918 31.5991 133.967 31.4868 134.915 31.4619C135.189 32.0858 135.402 32.8095 135.551 33.633V45.9114C135.551 46.3606 135.589 46.6725 135.664 46.8472C135.738 47.0219 135.913 47.1966 136.188 47.3713L137.685 48.2323L137.573 50.5532C136.5 50.8277 135.264 51.0773 133.867 51.3019C132.469 51.5015 131.172 51.6263 129.974 51.6762C129.874 51.3767 129.762 51.0024 129.637 50.5532C129.612 50.3536 129.549 50.1165 129.45 49.842H129.337C128.314 50.4409 127.228 50.9275 126.081 51.3019C124.957 51.6513 123.934 51.826 123.011 51.826ZM147.445 51.7885C145.249 51.7885 143.627 51.252 142.578 50.1789C141.53 49.0808 141.006 47.4212 141.006 45.2001V36.1037H138.386V33.371L145.124 27.2318L147.295 27.4939V31.7239H153.584V36.1411H147.295V43.8525C147.295 45.0504 147.457 45.849 147.782 46.2483C148.131 46.6476 148.792 46.8472 149.766 46.8472C150.589 46.8472 151.737 46.7349 153.21 46.5103L153.659 50.3286C152.76 50.7528 151.75 51.1022 150.627 51.3767C149.529 51.6513 148.468 51.7885 147.445 51.7885Z" fill="#6E5590"/>
<path d="M21.8989 64.7087L21.6165 65.6909H23.6668L23.3845 64.7087C23.2535 64.2831 23.1266 63.8452 23.0039 63.395C22.8893 62.9449 22.7747 62.4988 22.6601 62.0568H22.611C22.5046 62.507 22.39 62.9571 22.2672 63.4073C22.1526 63.8493 22.0299 64.2831 21.8989 64.7087ZM19.2102 68.9811L21.8253 60.9519H23.4949L26.11 68.9811H24.6122L23.986 66.8081H21.2851L20.6589 68.9811H19.2102ZM29.4938 69.1285C28.9454 69.1285 28.4502 69.0057 28.0082 68.7601C27.5745 68.5064 27.2266 68.1463 26.9647 67.6798C26.711 67.205 26.5841 66.6362 26.5841 65.9732C26.5841 65.3021 26.7232 64.7332 27.0015 64.2667C27.2798 63.792 27.6481 63.4319 28.1065 63.1863C28.573 62.9326 29.0723 62.8057 29.6043 62.8057C29.989 62.8057 30.3245 62.8712 30.611 63.0022C30.8975 63.1331 31.1512 63.2927 31.3722 63.481L30.6847 64.4017C30.5292 64.2626 30.3696 64.1562 30.2059 64.0825C30.0422 64.0007 29.8662 63.9598 29.6779 63.9598C29.195 63.9598 28.7981 64.1439 28.4871 64.5122C28.1842 64.8806 28.0328 65.3676 28.0328 65.9732C28.0328 66.5707 28.1801 67.0536 28.4748 67.4219C28.7776 67.7902 29.1664 67.9744 29.6411 67.9744C29.8785 67.9744 30.0995 67.9253 30.3041 67.8271C30.5169 67.7207 30.7092 67.5979 30.8811 67.4588L31.4581 68.3918C31.1799 68.6374 30.8688 68.8215 30.5251 68.9443C30.1813 69.0671 29.8375 69.1285 29.4938 69.1285ZM34.865 69.1285C34.3167 69.1285 33.8215 69.0057 33.3795 68.7601C32.9457 68.5064 32.5979 68.1463 32.336 67.6798C32.0822 67.205 31.9554 66.6362 31.9554 65.9732C31.9554 65.3021 32.0945 64.7332 32.3728 64.2667C32.6511 63.792 33.0194 63.4319 33.4777 63.1863C33.9443 62.9326 34.4435 62.8057 34.9755 62.8057C35.3602 62.8057 35.6958 62.8712 35.9823 63.0022C36.2687 63.1331 36.5225 63.2927 36.7435 63.481L36.0559 64.4017C35.9004 64.2626 35.7408 64.1562 35.5771 64.0825C35.4134 64.0007 35.2375 63.9598 35.0492 63.9598C34.5663 63.9598 34.1693 64.1439 33.8583 64.5122C33.5555 64.8806 33.4041 65.3676 33.4041 65.9732C33.4041 66.5707 33.5514 67.0536 33.846 67.4219C34.1489 67.7902 34.5377 67.9744 35.0124 67.9744C35.2497 67.9744 35.4707 67.9253 35.6753 67.8271C35.8881 67.7207 36.0805 67.5979 36.2524 67.4588L36.8294 68.3918C36.5511 68.6374 36.2401 68.8215 35.8963 68.9443C35.5526 69.0671 35.2088 69.1285 34.865 69.1285ZM40.2977 69.1285C39.7411 69.1285 39.2378 69.0057 38.7876 68.7601C38.3374 68.5064 37.9814 68.1463 37.7195 67.6798C37.4576 67.205 37.3266 66.6362 37.3266 65.9732C37.3266 65.3184 37.4576 64.7537 37.7195 64.279C37.9896 63.8043 38.3374 63.44 38.7631 63.1863C39.1887 62.9326 39.6347 62.8057 40.1013 62.8057C40.6496 62.8057 41.108 62.9285 41.4763 63.174C41.8446 63.4114 42.1229 63.747 42.3112 64.1808C42.4994 64.6064 42.5935 65.1015 42.5935 65.6663C42.5935 65.9609 42.5731 66.1901 42.5321 66.3538H38.7017C38.7671 66.8858 38.9595 67.2992 39.2787 67.5938C39.5979 67.8885 39.999 68.0358 40.4819 68.0358C40.7438 68.0358 40.9852 67.999 41.2062 67.9253C41.4354 67.8434 41.6605 67.733 41.8815 67.5938L42.3603 68.4778C42.0738 68.666 41.7546 68.8215 41.4026 68.9443C41.0507 69.0671 40.6824 69.1285 40.2977 69.1285ZM38.6894 65.3962H41.3658C41.3658 64.9297 41.2635 64.5654 41.0589 64.3035C40.8543 64.0334 40.5473 63.8984 40.1381 63.8984C39.7861 63.8984 39.471 64.0293 39.1928 64.2913C38.9227 64.545 38.7549 64.9133 38.6894 65.3962ZM45.624 69.1285C45.2147 69.1285 44.8055 69.0507 44.3963 68.8952C43.987 68.7315 43.6351 68.531 43.3404 68.2936L44.0034 67.3851C44.2735 67.5897 44.5436 67.7534 44.8137 67.8762C45.0838 67.999 45.3702 68.0603 45.6731 68.0603C46.0005 68.0603 46.2419 67.9908 46.3974 67.8516C46.5529 67.7125 46.6307 67.5406 46.6307 67.336C46.6307 67.1641 46.5652 67.025 46.4343 66.9186C46.3115 66.804 46.1519 66.7058 45.9555 66.6239C45.759 66.5339 45.5544 66.4479 45.3416 66.3661C45.0797 66.2679 44.8178 66.1492 44.5559 66.0101C44.3021 65.8627 44.0934 65.6786 43.9297 65.4576C43.766 65.2284 43.6842 64.946 43.6842 64.6105C43.6842 64.0784 43.8806 63.6447 44.2735 63.3091C44.6664 62.9735 45.1984 62.8057 45.8695 62.8057C46.2951 62.8057 46.6757 62.8794 47.0113 63.0267C47.3469 63.174 47.6374 63.3418 47.883 63.5301L47.2323 64.3895C47.0195 64.234 46.8026 64.1112 46.5816 64.0212C46.3688 63.9229 46.1437 63.8738 45.9063 63.8738C45.6035 63.8738 45.3784 63.9393 45.2311 64.0703C45.0838 64.193 45.0101 64.3485 45.0101 64.5368C45.0101 64.7742 45.1329 64.9542 45.3784 65.077C45.624 65.1998 45.9104 65.3184 46.2378 65.433C46.5161 65.5312 46.7862 65.654 47.0481 65.8013C47.31 65.9405 47.5269 66.1246 47.6988 66.3538C47.8789 66.583 47.9689 66.8858 47.9689 67.2623C47.9689 67.778 47.7684 68.2199 47.3673 68.5883C46.9663 68.9484 46.3852 69.1285 45.624 69.1285ZM50.9113 69.1285C50.5021 69.1285 50.0928 69.0507 49.6836 68.8952C49.2744 68.7315 48.9224 68.531 48.6278 68.2936L49.2907 67.3851C49.5608 67.5897 49.8309 67.7534 50.101 67.8762C50.3711 67.999 50.6576 68.0603 50.9604 68.0603C51.2878 68.0603 51.5293 67.9908 51.6848 67.8516C51.8403 67.7125 51.918 67.5406 51.918 67.336C51.918 67.1641 51.8526 67.025 51.7216 66.9186C51.5988 66.804 51.4392 66.7058 51.2428 66.6239C51.0464 66.5339 50.8417 66.4479 50.6289 66.3661C50.367 66.2679 50.1051 66.1492 49.8432 66.0101C49.5895 65.8627 49.3808 65.6786 49.2171 65.4576C49.0534 65.2284 48.9715 64.946 48.9715 64.6105C48.9715 64.0784 49.168 63.6447 49.5608 63.3091C49.9537 62.9735 50.4857 62.8057 51.1569 62.8057C51.5825 62.8057 51.9631 62.8794 52.2986 63.0267C52.6342 63.174 52.9248 63.3418 53.1703 63.5301L52.5196 64.3895C52.3068 64.234 52.0899 64.1112 51.8689 64.0212C51.6561 63.9229 51.431 63.8738 51.1937 63.8738C50.8908 63.8738 50.6658 63.9393 50.5184 64.0703C50.3711 64.193 50.2975 64.3485 50.2975 64.5368C50.2975 64.7742 50.4202 64.9542 50.6658 65.077C50.9113 65.1998 51.1978 65.3184 51.5252 65.433C51.8035 65.5312 52.0735 65.654 52.3355 65.8013C52.5974 65.9405 52.8143 66.1246 52.9862 66.3538C53.1662 66.583 53.2562 66.8858 53.2562 67.2623C53.2562 67.778 53.0557 68.2199 52.6547 68.5883C52.2536 68.9484 51.6725 69.1285 50.9113 69.1285ZM54.5167 68.9811V62.953H55.9285V68.9811H54.5167ZM55.2288 61.8972C54.975 61.8972 54.7704 61.8235 54.6149 61.6762C54.4594 61.5289 54.3816 61.3325 54.3816 61.0869C54.3816 60.8496 54.4594 60.6572 54.6149 60.5099C54.7704 60.3626 54.975 60.2889 55.2288 60.2889C55.4825 60.2889 55.6871 60.3626 55.8426 60.5099C55.9981 60.6572 56.0759 60.8496 56.0759 61.0869C56.0759 61.3325 55.9981 61.5289 55.8426 61.6762C55.6871 61.8235 55.4825 61.8972 55.2288 61.8972ZM60.6518 69.1285C60.0789 69.1285 59.5305 68.8665 59.0067 68.3427H58.9698L58.8471 68.9811H57.7298V60.3134H59.1417V62.5479L59.1049 63.5546C59.3586 63.3336 59.6369 63.1536 59.9397 63.0144C60.2426 62.8753 60.5454 62.8057 60.8482 62.8057C61.6012 62.8057 62.1865 63.084 62.6039 63.6406C63.0213 64.1971 63.23 64.9379 63.23 65.8627C63.23 66.5503 63.1072 67.1396 62.8617 67.6306C62.6162 68.1135 62.2969 68.486 61.9041 68.7479C61.5194 69.0016 61.102 69.1285 60.6518 69.1285ZM60.3572 67.9621C60.7582 67.9621 61.0938 67.7862 61.3639 67.4342C61.634 67.0823 61.769 66.5666 61.769 65.8873C61.769 65.2816 61.6667 64.811 61.4621 64.4754C61.2575 64.1398 60.926 63.972 60.4676 63.972C60.042 63.972 59.6001 64.1971 59.1417 64.6473V67.4588C59.3545 67.6388 59.5632 67.7698 59.7679 67.8516C59.9807 67.9253 60.1771 67.9621 60.3572 67.9621ZM64.6477 68.9811V62.953H66.0596V68.9811H64.6477ZM65.3598 61.8972C65.1061 61.8972 64.9015 61.8235 64.746 61.6762C64.5904 61.5289 64.5127 61.3325 64.5127 61.0869C64.5127 60.8496 64.5904 60.6572 64.746 60.5099C64.9015 60.3626 65.1061 60.2889 65.3598 60.2889C65.6135 60.2889 65.8182 60.3626 65.9737 60.5099C66.1292 60.6572 66.2069 60.8496 66.2069 61.0869C66.2069 61.3325 66.1292 61.5289 65.9737 61.6762C65.8182 61.8235 65.6135 61.8972 65.3598 61.8972ZM69.2359 69.1285C68.7367 69.1285 68.3806 68.977 68.1678 68.6742C67.9632 68.3714 67.8609 67.958 67.8609 67.4342V60.3134H69.2728V67.5079C69.2728 67.6798 69.3055 67.8025 69.371 67.8762C69.4365 67.9417 69.506 67.9744 69.5797 67.9744C69.6124 67.9744 69.6411 67.9744 69.6656 67.9744C69.6984 67.9662 69.7434 67.958 69.8007 67.9499L69.9849 69.0057C69.903 69.0384 69.7966 69.0671 69.6656 69.0916C69.5429 69.1162 69.3996 69.1285 69.2359 69.1285ZM71.194 68.9811V62.953H72.6058V68.9811H71.194ZM71.906 61.8972C71.6523 61.8972 71.4477 61.8235 71.2922 61.6762C71.1367 61.5289 71.0589 61.3325 71.0589 61.0869C71.0589 60.8496 71.1367 60.6572 71.2922 60.5099C71.4477 60.3626 71.6523 60.2889 71.906 60.2889C72.1598 60.2889 72.3644 60.3626 72.5199 60.5099C72.6754 60.6572 72.7532 60.8496 72.7532 61.0869C72.7532 61.3325 72.6754 61.5289 72.5199 61.6762C72.3644 61.8235 72.1598 61.8972 71.906 61.8972ZM76.5311 69.1285C75.8354 69.1285 75.3402 68.9279 75.0455 68.5269C74.7591 68.1176 74.6158 67.5897 74.6158 66.9431V64.0703H73.7564V63.0144L74.6895 62.953L74.8614 61.3079H76.04V62.953H77.5746V64.0703H76.04V66.9431C76.04 67.647 76.3224 67.999 76.8871 67.999C76.9935 67.999 77.104 67.9867 77.2186 67.9621C77.3332 67.9294 77.4314 67.8966 77.5133 67.8639L77.7588 68.9075C77.5951 68.9648 77.4069 69.0139 77.194 69.0548C76.9894 69.1039 76.7684 69.1285 76.5311 69.1285ZM79.2484 71.4611C79.0847 71.4611 78.9414 71.4488 78.8187 71.4243C78.6959 71.3997 78.5772 71.3711 78.4626 71.3383L78.7204 70.2334C78.7777 70.2498 78.8432 70.2661 78.9169 70.2825C78.9987 70.3071 79.0765 70.3193 79.1501 70.3193C79.4693 70.3193 79.7231 70.2211 79.9113 70.0247C80.1078 69.8364 80.2551 69.5909 80.3533 69.2881L80.4638 68.9075L78.0943 62.953H79.5307L80.5743 65.9118C80.6643 66.1738 80.7503 66.452 80.8321 66.7467C80.9221 67.0332 81.0122 67.3196 81.1022 67.6061H81.1513C81.225 67.3278 81.2986 67.0454 81.3723 66.759C81.4542 66.4643 81.5319 66.1819 81.6056 65.9118L82.5141 62.953H83.8769L81.6915 69.2512C81.4378 69.9306 81.1309 70.4667 80.7707 70.8595C80.4106 71.2606 79.9031 71.4611 79.2484 71.4611ZM87.5025 68.9811V60.9519H90.0684C90.625 60.9519 91.116 61.0132 91.5416 61.136C91.9754 61.2588 92.3151 61.4675 92.5607 61.7622C92.8144 62.0486 92.9412 62.4374 92.9412 62.9285C92.9412 63.305 92.843 63.661 92.6466 63.9966C92.4502 64.324 92.176 64.5491 91.824 64.6718V64.721C92.266 64.8192 92.6302 65.0279 92.9167 65.3471C93.2113 65.6581 93.3587 66.0837 93.3587 66.6239C93.3587 67.1559 93.2236 67.5979 92.9535 67.9499C92.6916 68.3018 92.3274 68.5637 91.8609 68.7356C91.3943 68.8993 90.8664 68.9811 90.2771 68.9811H87.5025ZM88.9266 64.2667H89.9456C90.5022 64.2667 90.9073 64.1644 91.1611 63.9598C91.4148 63.7552 91.5416 63.481 91.5416 63.1372C91.5416 62.7443 91.4107 62.466 91.1488 62.3024C90.8869 62.1387 90.494 62.0568 89.9702 62.0568H88.9266V64.2667ZM88.9266 67.8762H90.1298C90.7191 67.8762 91.1733 67.7698 91.4925 67.557C91.8117 67.336 91.9713 67.0004 91.9713 66.5503C91.9713 66.1246 91.8158 65.8177 91.5048 65.6295C91.1938 65.433 90.7354 65.3348 90.1298 65.3348H88.9266V67.8762ZM97.2834 69.1285C96.7269 69.1285 96.2235 69.0057 95.7733 68.7601C95.3232 68.5064 94.9671 68.1463 94.7052 67.6798C94.4433 67.205 94.3124 66.6362 94.3124 65.9732C94.3124 65.3184 94.4433 64.7537 94.7052 64.279C94.9753 63.8043 95.3232 63.44 95.7488 63.1863C96.1744 62.9326 96.6205 62.8057 97.087 62.8057C97.6354 62.8057 98.0937 62.9285 98.462 63.174C98.8304 63.4114 99.1086 63.747 99.2969 64.1808C99.4851 64.6064 99.5793 65.1015 99.5793 65.6663C99.5793 65.9609 99.5588 66.1901 99.5179 66.3538H95.6874C95.7529 66.8858 95.9452 67.2992 96.2644 67.5938C96.5836 67.8885 96.9847 68.0358 97.4676 68.0358C97.7295 68.0358 97.971 67.999 98.1919 67.9253C98.4211 67.8434 98.6462 67.733 98.8672 67.5938L99.346 68.4778C99.0595 68.666 98.7403 68.8215 98.3884 68.9443C98.0364 69.0671 97.6681 69.1285 97.2834 69.1285ZM95.6751 65.3962H98.3515C98.3515 64.9297 98.2492 64.5654 98.0446 64.3035C97.84 64.0334 97.5331 63.8984 97.1238 63.8984C96.7719 63.8984 96.4568 64.0293 96.1785 64.2913C95.9084 64.545 95.7406 64.9133 95.6751 65.3962ZM100.928 68.9811V62.953H102.094L102.192 63.7633H102.241C102.511 63.5014 102.806 63.2763 103.125 63.0881C103.445 62.8998 103.809 62.8057 104.218 62.8057C104.865 62.8057 105.335 63.0144 105.63 63.4319C105.925 63.8493 106.072 64.4386 106.072 65.1998V68.9811H104.66V65.3839C104.66 64.8846 104.586 64.5327 104.439 64.3281C104.292 64.1235 104.05 64.0212 103.715 64.0212C103.453 64.0212 103.219 64.0866 103.015 64.2176C102.818 64.3404 102.593 64.5245 102.34 64.7701V68.9811H100.928ZM110.314 69.1285C109.766 69.1285 109.271 69.0057 108.829 68.7601C108.395 68.5064 108.047 68.1463 107.785 67.6798C107.532 67.205 107.405 66.6362 107.405 65.9732C107.405 65.3021 107.544 64.7332 107.822 64.2667C108.101 63.792 108.469 63.4319 108.927 63.1863C109.394 62.9326 109.893 62.8057 110.425 62.8057C110.81 62.8057 111.145 62.8712 111.432 63.0022C111.718 63.1331 111.972 63.2927 112.193 63.481L111.505 64.4017C111.35 64.2626 111.19 64.1562 111.027 64.0825C110.863 64.0007 110.687 63.9598 110.499 63.9598C110.016 63.9598 109.619 64.1439 109.308 64.5122C109.005 64.8806 108.854 65.3676 108.854 65.9732C108.854 66.5707 109.001 67.0536 109.295 67.4219C109.598 67.7902 109.987 67.9744 110.462 67.9744C110.699 67.9744 110.92 67.9253 111.125 67.8271C111.338 67.7207 111.53 67.5979 111.702 67.4588L112.279 68.3918C112.001 68.6374 111.69 68.8215 111.346 68.9443C111.002 69.0671 110.658 69.1285 110.314 69.1285ZM113.469 68.9811V60.3134H114.881V62.5479L114.831 63.7142C115.085 63.4769 115.368 63.2682 115.679 63.0881C115.99 62.8998 116.35 62.8057 116.759 62.8057C117.406 62.8057 117.876 63.0144 118.171 63.4319C118.465 63.8493 118.613 64.4386 118.613 65.1998V68.9811H117.201V65.3839C117.201 64.8846 117.127 64.5327 116.98 64.3281C116.833 64.1235 116.591 64.0212 116.256 64.0212C115.994 64.0212 115.76 64.0866 115.556 64.2176C115.359 64.3404 115.134 64.5245 114.881 64.7701V68.9811H113.469ZM120.315 68.9811V62.953H121.481L121.579 63.7756H121.628C121.882 63.5055 122.156 63.2763 122.451 63.0881C122.754 62.8998 123.093 62.8057 123.47 62.8057C123.912 62.8057 124.264 62.9039 124.526 63.1004C124.796 63.2886 125 63.5505 125.14 63.8861C125.426 63.5751 125.725 63.3173 126.036 63.1126C126.355 62.908 126.703 62.8057 127.079 62.8057C127.718 62.8057 128.188 63.0144 128.491 63.4319C128.794 63.8493 128.945 64.4386 128.945 65.1998V68.9811H127.521V65.3839C127.521 64.8846 127.444 64.5327 127.288 64.3281C127.141 64.1235 126.912 64.0212 126.601 64.0212C126.224 64.0212 125.803 64.2708 125.336 64.7701V68.9811H123.924V65.3839C123.924 64.8846 123.846 64.5327 123.691 64.3281C123.544 64.1235 123.31 64.0212 122.991 64.0212C122.615 64.0212 122.193 64.2708 121.727 64.7701V68.9811H120.315ZM132.122 69.1285C131.599 69.1285 131.169 68.9648 130.833 68.6374C130.506 68.31 130.342 67.8844 130.342 67.3605C130.342 66.7139 130.625 66.2147 131.189 65.8627C131.754 65.5026 132.655 65.2571 133.89 65.1261C133.882 64.8069 133.796 64.5327 133.633 64.3035C133.477 64.0662 133.195 63.9475 132.785 63.9475C132.491 63.9475 132.2 64.0048 131.914 64.1194C131.635 64.234 131.361 64.3731 131.091 64.5368L130.576 63.5915C130.911 63.3787 131.288 63.1945 131.705 63.039C132.131 62.8835 132.581 62.8057 133.056 62.8057C133.809 62.8057 134.369 63.0308 134.738 63.481C135.114 63.9229 135.302 64.5654 135.302 65.4085V68.9811H134.136L134.038 68.3182H133.989C133.719 68.5473 133.428 68.7397 133.117 68.8952C132.814 69.0507 132.483 69.1285 132.122 69.1285ZM132.577 68.0235C132.822 68.0235 133.043 67.9662 133.24 67.8516C133.444 67.7289 133.661 67.5652 133.89 67.3605V66.0101C133.072 66.1165 132.503 66.2761 132.184 66.4889C131.865 66.6935 131.705 66.9472 131.705 67.2501C131.705 67.5201 131.787 67.7166 131.951 67.8394C132.114 67.9621 132.323 68.0235 132.577 68.0235ZM136.992 68.9811V62.953H138.158L138.256 64.0212H138.306C138.518 63.6283 138.776 63.3295 139.079 63.1249C139.382 62.9121 139.693 62.8057 140.012 62.8057C140.299 62.8057 140.528 62.8466 140.7 62.9285L140.454 64.1562C140.348 64.1235 140.249 64.0989 140.159 64.0825C140.069 64.0662 139.959 64.058 139.828 64.058C139.591 64.058 139.341 64.1521 139.079 64.3404C138.817 64.5204 138.592 64.8396 138.404 65.298V68.9811H136.992ZM141.572 68.9811V60.3134H142.959V65.7277H142.996L145.23 62.953H146.777L144.715 65.4085L146.986 68.9811H145.451L143.905 66.3661L142.959 67.4465V68.9811H141.572ZM149.668 69.1285C149.259 69.1285 148.85 69.0507 148.44 68.8952C148.031 68.7315 147.679 68.531 147.385 68.2936L148.048 67.3851C148.318 67.5897 148.588 67.7534 148.858 67.8762C149.128 67.999 149.414 68.0603 149.717 68.0603C150.045 68.0603 150.286 67.9908 150.442 67.8516C150.597 67.7125 150.675 67.5406 150.675 67.336C150.675 67.1641 150.609 67.025 150.478 66.9186C150.356 66.804 150.196 66.7058 150 66.6239C149.803 66.5339 149.599 66.4479 149.386 66.3661C149.124 66.2679 148.862 66.1492 148.6 66.0101C148.346 65.8627 148.138 65.6786 147.974 65.4576C147.81 65.2284 147.728 64.946 147.728 64.6105C147.728 64.0784 147.925 63.6447 148.318 63.3091C148.711 62.9735 149.243 62.8057 149.914 62.8057C150.339 62.8057 150.72 62.8794 151.056 63.0267C151.391 63.174 151.682 63.3418 151.927 63.5301L151.277 64.3895C151.064 64.234 150.847 64.1112 150.626 64.0212C150.413 63.9229 150.188 63.8738 149.951 63.8738C149.648 63.8738 149.423 63.9393 149.275 64.0703C149.128 64.193 149.054 64.3485 149.054 64.5368C149.054 64.7742 149.177 64.9542 149.423 65.077C149.668 65.1998 149.955 65.3184 150.282 65.433C150.56 65.5312 150.83 65.654 151.092 65.8013C151.354 65.9405 151.571 66.1246 151.743 66.3538C151.923 66.583 152.013 66.8858 152.013 67.2623C152.013 67.778 151.813 68.2199 151.412 68.5883C151.011 68.9484 150.429 69.1285 149.668 69.1285Z" fill="#6E5590"/>
<path d="M51.9941 8.40405L55.442 15.3944H48.5463L51.9941 8.40405Z" fill="#6E5590"/>
<path d="M147.057 8.40405L150.505 15.3944H143.609L147.057 8.40405Z" fill="#6E5590"/>
<path d="M99.7717 7.24493L104.205 15.8045H95.3387L99.7717 7.24493Z" fill="#6E5590"/>
<path d="M99.7013 5.49734L102.34 10.8471H97.0626L99.7013 5.49734Z" fill="#6E5590"/>
<rect x="98.5403" y="15.3944" width="2.70904" height="3.49517" fill="#6E5590"/>
<rect x="114.302" y="16.6427" width="2.70904" height="2.24689" fill="#6E5590"/>
<rect x="82.5323" y="16.6427" width="2.70904" height="2.24689" fill="#6E5590"/>
<rect x="66.5244" y="16.6427" width="2.70904" height="2.24689" fill="#6E5590"/>
<rect x="50.7627" y="15.3944" width="2.70904" height="3.49517" fill="#6E5590"/>
<rect x="130.064" y="16.6427" width="2.70904" height="2.24689" fill="#6E5590"/>
<rect x="145.825" y="15.3944" width="2.70904" height="3.49517" fill="#6E5590"/>
<rect x="88.5858" y="43.6236" width="2.7" height="3" transform="rotate(-90 88.5858 43.6236)" fill="#6E5590"/>
</svg>
