<svg fill="none" height="72" viewBox="0 0 155 72" width="155" xmlns="http://www.w3.org/2000/svg"><g fill="#6e5590"><path d="m9.6954 51.7885c-2.8949 0-5.14093-.8859-6.73812-2.6578-1.59718-1.7968-2.395771-4.2675-2.395771-7.4119 0-3.2692.848501-5.8148 2.545511-7.6365 1.72196-1.8218 4.06782-2.7327 7.03758-2.7327 2.246 0 4.6543.5116 7.2248 1.5348-.05.7237-.1623 1.6845-.3369 2.8824-.1747 1.1729-.3619 2.2585-.5616 3.2567l-2.508.2246-2.3209-2.9572c-.6239-.1248-1.3227-.1872-2.09634-.1872-.6239 0-1.19789.0374-1.72196.1123-.57399 1.0981-.86098 2.6453-.86098 4.6418 0 2.0464.36186 3.5687 1.08558 4.5669.72373.9733 1.82179 1.46 3.2942 1.46.6988 0 1.5473-.0999 2.5455-.2995.9982-.2246 2.0214-.5366 3.0696-.9358l.8984 3.7433c-.9982.6988-2.246 1.2728-3.7434 1.722-1.4724.4492-2.9448.6738-4.4172.6738zm9.665-3.9305 2.6204-.7862v-17.9308c0-.5491-.05-.8984-.1498-1.0482-.0748-.1747-.287-.3618-.6364-.5615l-1.6471-.861.1872-2.845c.4991-.0998.886-.1622 1.1605-.1871 3.2942-.599 5.5901-.9234 6.8878-.9733.2496.574.4118 1.2228.4867 1.9466v21.225c0 .5241.0374.8735.1123 1.0482.0748.1747.287.3618.6363.5615l1.8343 1.0481-.1497 2.8076h-11.2302zm21.7371 3.8931c-2.9198 0-5.1783-.8859-6.7755-2.6578-1.5723-1.7719-2.3584-4.2176-2.3584-7.3371 0-2.1712.3868-4.0304 1.1605-5.5776.7736-1.5723 1.8717-2.7702 3.2942-3.5937 1.4225-.8236 3.082-1.2353 4.9787-1.2353 2.82 0 4.9787.8984 6.4761 2.6952 1.5223 1.7969 2.246 4.3548 2.1711 7.674l-11.3799 2.0963c.3494 1.0481.836 1.8218 1.4599 2.3209.6489.4742 1.4974.7112 2.5455.7112.7238 0 1.5848-.0998 2.583-.2994.9982-.2246 2.0089-.5241 3.0321-.8984l.861 3.7059c-.9233.6988-2.1212 1.2728-3.5936 1.722s-2.9573.6738-4.4547.6738zm2.8076-13.1768c-.0499-.9483-.3245-1.6346-.8236-2.0588-.4741-.4492-1.148-.6738-2.0214-.6738-.7237 0-1.41.0998-2.0589.2994-.5241 1.2229-.7611 2.5455-.7112 3.968zm13.382 13.2142c-1.697 0-3.0571-.4617-4.0803-1.385-1.0232-.9484-1.5348-2.1587-1.5348-3.6311 0-1.9716.9858-3.5188 2.9573-4.6418 1.9965-1.1231 4.8914-1.7594 8.6847-1.9092 0-1.1729-.0998-2.0339-.2995-2.5829-.1747-.574-.5116-.9608-1.0107-1.1605-.4742-.2246-1.2104-.3369-2.2086-.3369-1.0232 0-1.7469.0375-2.1712.1123l-1.5348 3.0322-2.7701-.1872c-.4242-1.9965-.7237-4.0678-.8984-6.214 1.3975-.4742 2.9199-.8485 4.567-1.123 1.672-.2746 3.2318-.4118 4.6792-.4118 2.6453 0 4.542.5241 5.69 1.5722 1.1479 1.0232 1.7219 2.7327 1.7219 5.1285v7.8237c0 .4492.0375.7611.1123.9358.0999.1747.2995.3494.599.5241l1.4973.861-.1497 2.3209c-2.8949.6738-5.1784 1.0481-6.8504 1.123-.0499-.1498-.1248-.4118-.2246-.7861-.0999-.3993-.1872-.7737-.2621-1.123-.9732.6239-2.0464 1.123-3.2193 1.4973-1.148.3744-2.246.5615-3.2942.5615zm2.5081-4.23c.9982 0 2.2086-.3369 3.6311-1.0107l-.1497-2.845c-.599-.0499-.9983-.0749-1.1979-.0749-.6738 0-1.46.0749-2.3584.2246-.8984.1248-1.6096.2745-2.1337.4492-.0749.3245-.1123.6239-.1123.8984 0 .7487.1996 1.3352.5989 1.7594.4243.3993.9983.599 1.722.599zm12.8665.1872 2.2834-.6739v-9.0964c0-.549-.0374-.8984-.1123-1.0482-.0748-.1747-.2745-.3618-.5989-.5615l-1.6471-.8984.1123-2.8075c.4243-.0999.7861-.1622 1.0856-.1872 3.0197-.6239 5.2532-.9608 6.7007-1.0107.2246.6488.4367 1.4599.6363 2.4332 1.4974-1.1729 2.7702-1.984 3.8183-2.4332h2.1337c-.0249.9483-.0873 1.984-.1871 3.107-.0999 1.0981-.2246 1.984-.3744 2.6578-.8984-.0499-1.5597-.0749-1.984-.0749-1.0481 0-2.1337.0624-3.2567.1872v8.4975c0 .5241.0374.8735.1123 1.0482.0748.1747.2745.3618.5989.5615l2.2461 1.1979-.1498 2.6578h-11.2302zm32.3363 4.0428c-2.894 0-5.1405-.8859-6.7376-2.6578-1.5972-1.7968-2.3958-4.2675-2.3958-7.4119 0-3.2692.8485-5.8148 2.5455-7.6365 1.7219-1.8218 4.0679-2.7327 7.0379-2.7327 2.246 0 4.654.5116 7.224 1.5348-.049.7237-.162 1.6845-.336 2.8824-.175 1.1729-.362 2.2585-.562 3.2567l-2.508.2246-2.321-2.9572c-.624-.1248-1.323-.1872-2.096-.1872-.624 0-1.198.0374-1.722.1123-.574 1.0981-.861 2.6453-.861 4.6418 0 2.0464.362 3.5687 1.085 4.5669.724.9733 1.822 1.46 3.295 1.46.698 0 1.547-.0999 2.545-.2995.998-.2246 2.022-.5366 3.07-.9358l.898 3.7433c-.998.6988-2.246 1.2728-3.743 1.722-1.473.4492-2.945.6738-4.418.6738zm18.013.0375c-1.997 0-3.481-.5865-4.455-1.7594-.973-1.1979-1.46-2.9948-1.46-5.3905v-6.7007c0-.549-.05-.8984-.149-1.0482-.075-.1747-.287-.3618-.637-.5615l-1.684-.8984.187-2.8075c.349-.0499.599-.0999.749-.1498.274-.0499 1.247-.2246 2.919-.524 1.697-.2995 3.107-.4742 4.23-.5241.275.6239.487 1.3476.637 2.1711v9.4334c0 1.0981.025 1.8717.075 2.3209.075.4492.274.7986.599 1.0482.349.2246.935.3369 1.759.3369 1.198 0 2.358-.2122 3.481-.6364v-8.1606c0-.549-.037-.8984-.112-1.0482-.075-.1747-.274-.3618-.599-.5615l-1.647-.8984.15-2.8075c2.021-.3744 3.593-.6614 4.716-.861 1.148-.1997 2.197-.312 3.145-.3369.274.6239.487 1.3476.636 2.1711v12.2784c0 .4492.038.7611.113.9358.074.1747.249.3494.524.5241l1.497.861-.112 2.3209c-1.073.2745-2.309.5241-3.706.7487-1.398.1996-2.695.3244-3.893.3743-.1-.2995-.212-.6738-.337-1.123-.025-.1996-.088-.4367-.187-.7112h-.113c-1.023.5989-2.109 1.0855-3.256 1.4599-1.124.3494-2.147.5241-3.07.5241zm24.434-.0375c-2.196 0-3.818-.5365-4.867-1.6096-1.048-1.0981-1.572-2.7577-1.572-4.9788v-9.0964h-2.62v-2.7327l6.738-6.1392 2.171.2621v4.23h6.289v4.4172h-6.289v7.7114c0 1.1979.162 1.9965.487 2.3958.349.3993 1.01.5989 1.984.5989.823 0 1.971-.1123 3.444-.3369l.449 3.8183c-.899.4242-1.909.7736-3.032 1.0481-1.098.2746-2.159.4118-3.182.4118z"/><path d="m21.8989 64.7087-.2824.9822h2.0503l-.2823-.9822c-.131-.4256-.2579-.8635-.3806-1.3137-.1146-.4501-.2292-.8962-.3438-1.3382h-.0491c-.1064.4502-.221.9003-.3438 1.3505-.1146.442-.2373.8758-.3683 1.3014zm-2.6887 4.2724 2.6151-8.0292h1.6696l2.6151 8.0292h-1.4978l-.6262-2.173h-2.7009l-.6262 2.173zm10.2836.1474c-.5484 0-1.0436-.1228-1.4856-.3684-.4337-.2537-.7816-.6138-1.0435-1.0803-.2537-.4748-.3806-1.0436-.3806-1.7066 0-.6711.1391-1.24.4174-1.7065.2783-.4747.6466-.8348 1.105-1.0804.4665-.2537.9658-.3806 1.4978-.3806.3847 0 .7202.0655 1.0067.1965.2865.1309.5402.2905.7612.4788l-.6875.9207c-.1555-.1391-.3151-.2455-.4788-.3192-.1637-.0818-.3397-.1227-.528-.1227-.4829 0-.8798.1841-1.1908.5524-.3029.3684-.4543.8554-.4543 1.461 0 .5975.1473 1.0804.442 1.4487.3028.3683.6916.5525 1.1663.5525.2374 0 .4584-.0491.663-.1473.2128-.1064.4051-.2292.577-.3683l.577.933c-.2782.2456-.5893.4297-.933.5525-.3438.1228-.6876.1842-1.0313.1842zm5.3712 0c-.5483 0-1.0435-.1228-1.4855-.3684-.4338-.2537-.7816-.6138-1.0435-1.0803-.2538-.4748-.3806-1.0436-.3806-1.7066 0-.6711.1391-1.24.4174-1.7065.2783-.4747.6466-.8348 1.1049-1.0804.4666-.2537.9658-.3806 1.4978-.3806.3847 0 .7203.0655 1.0068.1965.2864.1309.5402.2905.7612.4788l-.6876.9207c-.1555-.1391-.3151-.2455-.4788-.3192-.1637-.0818-.3396-.1227-.5279-.1227-.4829 0-.8799.1841-1.1909.5524-.3028.3684-.4542.8554-.4542 1.461 0 .5975.1473 1.0804.4419 1.4487.3029.3683.6917.5525 1.1664.5525.2373 0 .4583-.0491.6629-.1473.2128-.1064.4052-.2292.5771-.3683l.577.933c-.2783.2456-.5893.4297-.9331.5525-.3437.1228-.6875.1842-1.0313.1842zm5.4327 0c-.5566 0-1.0599-.1228-1.5101-.3684-.4502-.2537-.8062-.6138-1.0681-1.0803-.2619-.4748-.3929-1.0436-.3929-1.7066 0-.6548.131-1.2195.3929-1.6942.2701-.4747.6179-.839 1.0436-1.0927.4256-.2537.8716-.3806 1.3382-.3806.5483 0 1.0067.1228 1.375.3683.3683.2374.6466.573.8349 1.0068.1882.4256.2823.9207.2823 1.4855 0 .2946-.0204.5238-.0614.6875h-3.8304c.0654.532.2578.9454.577 1.24.3192.2947.7203.442 1.2032.442.2619 0 .5033-.0368.7243-.1105.2292-.0819.4543-.1923.6753-.3315l.4788.884c-.2865.1882-.6057.3437-.9577.4665-.3519.1228-.7202.1842-1.1049.1842zm-1.6083-3.7323h2.6764c0-.4665-.1023-.8308-.3069-1.0927-.2046-.2701-.5116-.4051-.9208-.4051-.352 0-.6671.1309-.9453.3929-.2701.2537-.4379.622-.5034 1.1049zm6.9346 3.7323c-.4093 0-.8185-.0778-1.2277-.2333-.4093-.1637-.7612-.3642-1.0559-.6016l.663-.9085c.2701.2046.5402.3683.8103.4911s.5565.1841.8594.1841c.3274 0 .5688-.0695.7243-.2087.1555-.1391.2333-.311.2333-.5156 0-.1719-.0655-.311-.1964-.4174-.1228-.1146-.2824-.2128-.4788-.2947-.1965-.09-.4011-.176-.6139-.2578-.2619-.0982-.5238-.2169-.7857-.356-.2538-.1474-.4625-.3315-.6262-.5525-.1637-.2292-.2455-.5116-.2455-.8471 0-.5321.1964-.9658.5893-1.3014s.9249-.5034 1.596-.5034c.4256 0 .8062.0737 1.1418.221s.6261.3151.8717.5034l-.6507.8594c-.2128-.1555-.4297-.2783-.6507-.3683-.2128-.0983-.4379-.1474-.6753-.1474-.3028 0-.5279.0655-.6752.1965-.1473.1227-.221.2782-.221.4665 0 .2374.1228.4174.3683.5402.2456.1228.532.2414.8594.356.2783.0982.5484.221.8103.3683.2619.1392.4788.3233.6507.5525.1801.2292.2701.532.2701.9085 0 .5157-.2005.9576-.6016 1.326-.401.3601-.9821.5402-1.7433.5402zm5.2873 0c-.4092 0-.8185-.0778-1.2277-.2333-.4092-.1637-.7612-.3642-1.0558-.6016l.6629-.9085c.2701.2046.5402.3683.8103.4911s.5566.1841.8594.1841c.3274 0 .5689-.0695.7244-.2087.1555-.1391.2332-.311.2332-.5156 0-.1719-.0654-.311-.1964-.4174-.1228-.1146-.2824-.2128-.4788-.2947-.1964-.09-.4011-.176-.6139-.2578-.2619-.0982-.5238-.2169-.7857-.356-.2537-.1474-.4624-.3315-.6261-.5525-.1637-.2292-.2456-.5116-.2456-.8471 0-.5321.1965-.9658.5893-1.3014.3929-.3356.9249-.5034 1.5961-.5034.4256 0 .8062.0737 1.1417.221.3356.1473.6262.3151.8717.5034l-.6507.8594c-.2128-.1555-.4297-.2783-.6507-.3683-.2128-.0983-.4379-.1474-.6752-.1474-.3029 0-.5279.0655-.6753.1965-.1473.1227-.2209.2782-.2209.4665 0 .2374.1227.4174.3683.5402.2455.1228.532.2414.8594.356.2783.0982.5483.221.8103.3683.2619.1392.4788.3233.6507.5525.18.2292.27.532.27.9085 0 .5157-.2005.9576-.6015 1.326-.4011.3601-.9822.5402-1.7434.5402zm3.6054-.1474v-6.0281h1.4118v6.0281zm.7121-7.0839c-.2538 0-.4584-.0737-.6139-.221s-.2333-.3437-.2333-.5893c0-.2373.0778-.4297.2333-.577s.3601-.221.6139-.221c.2537 0 .4583.0737.6138.221s.2333.3397.2333.577c0 .2456-.0778.442-.2333.5893s-.3601.221-.6138.221zm5.423 7.2313c-.5729 0-1.1213-.262-1.6451-.7858h-.0369l-.1227.6384h-1.1173v-8.6677h1.4119v2.2345l-.0368 1.0067c.2537-.221.532-.401.8348-.5402.3029-.1391.6057-.2087.9085-.2087.753 0 1.3383.2783 1.7557.8349.4174.5565.6261 1.2973.6261 2.2221 0 .6876-.1228 1.2769-.3683 1.7679-.2455.4829-.5648.8554-.9576 1.1173-.3847.2537-.8021.3806-1.2523.3806zm-.2946-1.1664c.401 0 .7366-.1759 1.0067-.5279.2701-.3519.4051-.8676.4051-1.5469 0-.6057-.1023-1.0763-.3069-1.4119s-.5361-.5034-.9945-.5034c-.4256 0-.8675.2251-1.3259.6753v2.8115c.2128.18.4215.311.6262.3928.2128.0737.4092.1105.5893.1105zm4.2905 1.019v-6.0281h1.4119v6.0281zm.7121-7.0839c-.2537 0-.4583-.0737-.6138-.221-.1556-.1473-.2333-.3437-.2333-.5893 0-.2373.0777-.4297.2333-.577.1555-.1473.3601-.221.6138-.221s.4584.0737.6139.221.2332.3397.2332.577c0 .2456-.0777.442-.2332.5893s-.3602.221-.6139.221zm3.8761 7.2313c-.4992 0-.8553-.1515-1.0681-.4543-.2046-.3028-.3069-.7162-.3069-1.24v-7.1208h1.4119v7.1945c0 .1719.0327.2946.0982.3683.0655.0655.135.0982.2087.0982h.0859c.0328-.0082.0778-.0164.1351-.0245l.1842 1.0558c-.0819.0327-.1883.0614-.3193.0859-.1227.0246-.266.0369-.4297.0369zm1.9581-.1474v-6.0281h1.4118v6.0281zm.712-7.0839c-.2537 0-.4583-.0737-.6138-.221s-.2333-.3437-.2333-.5893c0-.2373.0778-.4297.2333-.577s.3601-.221.6138-.221c.2538 0 .4584.0737.6139.221s.2333.3397.2333.577c0 .2456-.0778.442-.2333.5893s-.3601.221-.6139.221zm4.6251 7.2313c-.6957 0-1.1909-.2006-1.4856-.6016-.2864-.4093-.4297-.9372-.4297-1.5838v-2.8728h-.8594v-1.0559l.9331-.0614.1719-1.6451h1.1786v1.6451h1.5346v1.1173h-1.5346v2.8728c0 .7039.2824 1.0559.8471 1.0559.1064 0 .2169-.0123.3315-.0369.1146-.0327.2128-.0655.2947-.0982l.2455 1.0436c-.1637.0573-.3519.1064-.5648.1473-.2046.0491-.4256.0737-.6629.0737zm2.7173 2.3326c-.1637 0-.307-.0123-.4297-.0368-.1228-.0246-.2415-.0532-.3561-.086l.2578-1.1049c.0573.0164.1228.0327.1965.0491.0818.0246.1596.0368.2332.0368.3192 0 .573-.0982.7612-.2946.1965-.1883.3438-.4338.442-.7366l.1105-.3806-2.3695-5.9545h1.4364l1.0436 2.9588c.09.262.176.5402.2578.8349.09.2865.1801.5729.2701.8594h.0491c.0737-.2783.1473-.5607.221-.8471.0819-.2947.1596-.5771.2333-.8472l.9085-2.9588h1.3628l-2.1854 6.2982c-.2537.6794-.5606 1.2155-.9208 1.6083-.3601.4011-.8676.6016-1.5223.6016zm8.2541-2.48v-8.0292h2.5659c.5566 0 1.0476.0613 1.4732.1841.4338.1228.7735.3315 1.0191.6262.2537.2864.3805.6752.3805 1.1663 0 .3765-.0982.7325-.2946 1.0681-.1964.3274-.4706.5525-.8226.6752v.0492c.442.0982.8062.3069 1.0927.6261.2946.311.442.7366.442 1.2768 0 .532-.1351.974-.4052 1.326-.2619.3519-.6261.6138-1.0926.7857-.4666.1637-.9945.2455-1.5838.2455zm1.4241-4.7144h1.019c.5566 0 .9617-.1023 1.2155-.3069.2537-.2046.3805-.4788.3805-.8226 0-.3929-.1309-.6712-.3928-.8348-.2619-.1637-.6548-.2456-1.1786-.2456h-1.0436zm0 3.6095h1.2032c.5893 0 1.0435-.1064 1.3627-.3192.3192-.221.4788-.5566.4788-1.0067 0-.4257-.1555-.7326-.4665-.9208-.311-.1965-.7694-.2947-1.375-.2947h-1.2032zm8.3568 1.2523c-.5565 0-1.0599-.1228-1.5101-.3684-.4501-.2537-.8062-.6138-1.0681-1.0803-.2619-.4748-.3928-1.0436-.3928-1.7066 0-.6548.1309-1.2195.3928-1.6942.2701-.4747.618-.839 1.0436-1.0927s.8717-.3806 1.3382-.3806c.5484 0 1.0067.1228 1.375.3683.3684.2374.6466.573.8349 1.0068.1882.4256.2824.9207.2824 1.4855 0 .2946-.0205.5238-.0614.6875h-3.8305c.0655.532.2578.9454.577 1.24.3192.2947.7203.442 1.2032.442.2619 0 .5034-.0368.7243-.1105.2292-.0819.4543-.1923.6753-.3315l.4788.884c-.2865.1882-.6057.3437-.9576.4665-.352.1228-.7203.1842-1.105.1842zm-1.6083-3.7323h2.6764c0-.4665-.1023-.8308-.3069-1.0927-.2046-.2701-.5115-.4051-.9208-.4051-.3519 0-.667.1309-.9453.3929-.2701.2537-.4379.622-.5034 1.1049zm5.2529 3.5849v-6.0281h1.166l.098.8103h.049c.27-.2619.565-.487.884-.6752.32-.1883.684-.2824 1.093-.2824.647 0 1.117.2087 1.412.6262.295.4174.442 1.0067.442 1.7679v3.7813h-1.412v-3.5972c0-.4993-.074-.8512-.221-1.0558s-.389-.3069-.724-.3069c-.262 0-.496.0654-.7.1964-.197.1228-.422.3069-.675.5525v4.211zm9.386.1474c-.548 0-1.043-.1228-1.485-.3684-.434-.2537-.782-.6138-1.044-1.0803-.253-.4748-.38-1.0436-.38-1.7066 0-.6711.139-1.24.417-1.7065.279-.4747.647-.8348 1.105-1.0804.467-.2537.966-.3806 1.498-.3806.385 0 .72.0655 1.007.1965.286.1309.54.2905.761.4788l-.688.9207c-.155-.1391-.315-.2455-.478-.3192-.164-.0818-.34-.1227-.528-.1227-.483 0-.88.1841-1.191.5524-.303.3684-.454.8554-.454 1.461 0 .5975.147 1.0804.441 1.4487.303.3683.692.5525 1.167.5525.237 0 .458-.0491.663-.1473.213-.1064.405-.2292.577-.3683l.577.933c-.278.2456-.589.4297-.933.5525s-.688.1842-1.032.1842zm3.155-.1474v-8.6677h1.412v2.2345l-.05 1.1663c.254-.2373.537-.446.848-.6261.311-.1883.671-.2824 1.08-.2824.647 0 1.117.2087 1.412.6262.294.4174.442 1.0067.442 1.7679v3.7813h-1.412v-3.5972c0-.4993-.074-.8512-.221-1.0558s-.389-.3069-.724-.3069c-.262 0-.496.0654-.7.1964-.197.1228-.422.3069-.675.5525v4.211zm6.846 0v-6.0281h1.166l.098.8226h.049c.254-.2701.528-.4993.823-.6875.303-.1883.642-.2824 1.019-.2824.442 0 .794.0982 1.056.2947.27.1882.474.4501.614.7857.286-.311.585-.5688.896-.7735.319-.2046.667-.3069 1.043-.3069.639 0 1.109.2087 1.412.6262.303.4174.454 1.0067.454 1.7679v3.7813h-1.424v-3.5972c0-.4993-.077-.8512-.233-1.0558-.147-.2046-.376-.3069-.687-.3069-.377 0-.798.2496-1.265.7489v4.211h-1.412v-3.5972c0-.4993-.078-.8512-.233-1.0558-.147-.2046-.381-.3069-.7-.3069-.376 0-.798.2496-1.264.7489v4.211zm11.807.1474c-.523 0-.953-.1637-1.289-.4911-.327-.3274-.491-.753-.491-1.2769 0-.6466.283-1.1458.847-1.4978.565-.3601 1.466-.6056 2.701-.7366-.008-.3192-.094-.5934-.257-.8226-.156-.2373-.438-.356-.848-.356-.294 0-.585.0573-.871.1719-.279.1146-.553.2537-.823.4174l-.515-.9453c.335-.2128.712-.397 1.129-.5525.426-.1555.876-.2333 1.351-.2333.753 0 1.313.2251 1.682.6753.376.4419.564 1.0844.564 1.9275v3.5726h-1.166l-.098-.6629h-.049c-.27.2291-.561.4215-.872.577-.303.1555-.634.2333-.995.2333zm.455-1.105c.245 0 .466-.0573.663-.1719.204-.1227.421-.2864.65-.4911v-1.3504c-.818.1064-1.387.266-1.706.4788-.319.2046-.479.4583-.479.7612 0 .27.082.4665.246.5893.163.1227.372.1841.626.1841zm4.415.9576v-6.0281h1.166l.098 1.0682h.05c.212-.3929.47-.6917.773-.8963.303-.2128.614-.3192.933-.3192.287 0 .516.0409.688.1228l-.246 1.2277c-.106-.0327-.205-.0573-.295-.0737-.09-.0163-.2-.0245-.331-.0245-.237 0-.487.0941-.749.2824-.262.18-.487.4992-.675.9576v3.6831zm4.58 0v-8.6677h1.387v5.4143h.037l2.234-2.7747h1.547l-2.062 2.4555 2.271 3.5726h-1.535l-1.546-2.615-.946 1.0804v1.5346zm8.096.1474c-.409 0-.818-.0778-1.228-.2333-.409-.1637-.761-.3642-1.055-.6016l.663-.9085c.27.2046.54.3683.81.4911s.556.1841.859.1841c.328 0 .569-.0695.725-.2087.155-.1391.233-.311.233-.5156 0-.1719-.066-.311-.197-.4174-.122-.1146-.282-.2128-.478-.2947-.197-.09-.401-.176-.614-.2578-.262-.0982-.524-.2169-.786-.356-.254-.1474-.462-.3315-.626-.5525-.164-.2292-.246-.5116-.246-.8471 0-.5321.197-.9658.59-1.3014s.925-.5034 1.596-.5034c.425 0 .806.0737 1.142.221.335.1473.626.3151.871.5034l-.65.8594c-.213-.1555-.43-.2783-.651-.3683-.213-.0983-.438-.1474-.675-.1474-.303 0-.528.0655-.676.1965-.147.1227-.221.2782-.221.4665 0 .2374.123.4174.369.5402.245.1228.532.2414.859.356.278.0982.548.221.81.3683.262.1392.479.3233.651.5525.18.2292.27.532.27.9085 0 .5157-.2.9576-.601 1.326-.401.3601-.983.5402-1.744.5402z"/><path d="m51.9941 8.40405 3.4479 6.99035h-6.8957z"/><path d="m147.057 8.40405 3.448 6.99035h-6.896z"/><path d="m99.7717 7.24493 4.4333 8.55957h-8.8663z"/><path d="m99.7013 5.49734 2.6387 5.34976h-5.2774z"/><path d="m98.5403 15.3944h2.70904v3.49517h-2.70904z"/><path d="m114.302 16.6427h2.70904v2.24689h-2.70904z"/><path d="m82.5323 16.6427h2.70904v2.24689h-2.70904z"/><path d="m66.5244 16.6427h2.70904v2.24689h-2.70904z"/><path d="m50.7627 15.3944h2.70904v3.49517h-2.70904z"/><path d="m130.064 16.6427h2.70904v2.24689h-2.70904z"/><path d="m145.825 15.3944h2.70904v3.49517h-2.70904z"/><path d="m88.5858 43.6236h2.7v3h-2.7z" transform="matrix(0 -1 1 0 44.9622 132.2094)"/></g></svg>