<svg width="155" height="72" viewBox="0 0 155 72" fill="none" xmlns="http://www.w3.org/2000/svg">
<path d="M9.6954 51.7885C6.8005 51.7885 4.55447 50.9026 2.95728 49.1307C1.3601 47.3339 0.561509 44.8632 0.561509 41.7188C0.561509 38.4496 1.41001 35.904 3.10702 34.0823C4.82898 32.2605 7.17484 31.3496 10.1446 31.3496C12.3906 31.3496 14.7989 31.8612 17.3694 32.8844C17.3194 33.6081 17.2071 34.5689 17.0325 35.7668C16.8578 36.9397 16.6706 38.0253 16.4709 39.0235L13.9629 39.2481L11.642 36.2909C11.0181 36.1661 10.3193 36.1037 9.54566 36.1037C8.92176 36.1037 8.34777 36.1411 7.8237 36.216C7.24971 37.3141 6.96272 38.8613 6.96272 40.8578C6.96272 42.9042 7.32458 44.4265 8.0483 45.4247C8.77203 46.398 9.87009 46.8847 11.3425 46.8847C12.0413 46.8847 12.8898 46.7848 13.888 46.5852C14.8862 46.3606 15.9094 46.0486 16.9576 45.6494L17.856 49.3927C16.8578 50.0915 15.61 50.6655 14.1126 51.1147C12.6402 51.5639 11.1678 51.7885 9.6954 51.7885ZM19.3604 47.858L21.9808 47.0718V29.141C21.9808 28.5919 21.9308 28.2426 21.831 28.0928C21.7562 27.9181 21.544 27.731 21.1946 27.5313L19.5475 26.6703L19.7347 23.8253C20.2338 23.7255 20.6207 23.6631 20.8952 23.6382C24.1894 23.0392 26.4853 22.7148 27.783 22.6649C28.0326 23.2389 28.1948 23.8877 28.2697 24.6115V45.8365C28.2697 46.3606 28.3071 46.71 28.382 46.8847C28.4568 47.0594 28.669 47.2465 29.0183 47.4462L30.8526 48.4943L30.7029 51.3019H19.4727L19.3604 47.858ZM41.0975 51.7511C38.1777 51.7511 35.9192 50.8652 34.322 49.0933C32.7497 47.3214 31.9636 44.8757 31.9636 41.7562C31.9636 39.585 32.3504 37.7258 33.1241 36.1786C33.8977 34.6063 34.9958 33.4084 36.4183 32.5849C37.8408 31.7613 39.5003 31.3496 41.397 31.3496C44.217 31.3496 46.3757 32.248 47.8731 34.0448C49.3954 35.8417 50.1191 38.3996 50.0442 41.7188L38.6643 43.8151C39.0137 44.8632 39.5003 45.6369 40.1242 46.136C40.7731 46.6102 41.6216 46.8472 42.6697 46.8472C43.3935 46.8472 44.2545 46.7474 45.2527 46.5478C46.2509 46.3232 47.2616 46.0237 48.2848 45.6494L49.1458 49.3553C48.2225 50.0541 47.0246 50.6281 45.5522 51.0773C44.0798 51.5265 42.5949 51.7511 41.0975 51.7511ZM43.9051 38.5743C43.8552 37.626 43.5806 36.9397 43.0815 36.5155C42.6074 36.0663 41.9335 35.8417 41.0601 35.8417C40.3364 35.8417 39.6501 35.9415 39.0012 36.1411C38.4771 37.364 38.2401 38.6866 38.29 40.1091L43.9051 38.5743ZM57.2871 51.7885C55.5901 51.7885 54.23 51.3268 53.2068 50.4035C52.1836 49.4551 51.672 48.2448 51.672 46.7724C51.672 44.8008 52.6578 43.2536 54.6293 42.1306C56.6258 41.0075 59.5207 40.3712 63.314 40.2214C63.314 39.0485 63.2142 38.1875 63.0145 37.6385C62.8398 37.0645 62.5029 36.6777 62.0038 36.478C61.5296 36.2534 60.7934 36.1411 59.7952 36.1411C58.772 36.1411 58.0483 36.1786 57.624 36.2534L56.0892 39.2856L53.3191 39.0984C52.8949 37.1019 52.5954 35.0306 52.4207 32.8844C53.8182 32.4102 55.3406 32.0359 56.9877 31.7614C58.6597 31.4868 60.2195 31.3496 61.6669 31.3496C64.3122 31.3496 66.2089 31.8737 67.3569 32.9218C68.5048 33.945 69.0788 35.6545 69.0788 38.0503V45.874C69.0788 46.3232 69.1163 46.6351 69.1911 46.8098C69.291 46.9845 69.4906 47.1592 69.7901 47.3339L71.2874 48.1949L71.1377 50.5158C68.2428 51.1896 65.9593 51.5639 64.2873 51.6388C64.2374 51.489 64.1625 51.227 64.0627 50.8527C63.9628 50.4534 63.8755 50.079 63.8006 49.7297C62.8274 50.3536 61.7542 50.8527 60.5813 51.227C59.4333 51.6014 58.3353 51.7885 57.2871 51.7885ZM59.7952 47.5585C60.7934 47.5585 62.0038 47.2216 63.4263 46.5478L63.2766 43.7028C62.6776 43.6529 62.2783 43.6279 62.0787 43.6279C61.4049 43.6279 60.6187 43.7028 59.7203 43.8525C58.8219 43.9773 58.1107 44.127 57.5866 44.3017C57.5117 44.6262 57.4743 44.9256 57.4743 45.2001C57.4743 45.9488 57.6739 46.5353 58.0732 46.9595C58.4975 47.3588 59.0715 47.5585 59.7952 47.5585ZM72.6617 47.7457L74.9451 47.0718V37.9754C74.9451 37.4264 74.9077 37.077 74.8328 36.9272C74.758 36.7525 74.5583 36.5654 74.2339 36.3657L72.5868 35.4673L72.6991 32.6598C73.1234 32.5599 73.4852 32.4976 73.7847 32.4726C76.8044 31.8487 79.0379 31.5118 80.4854 31.4619C80.71 32.1107 80.9221 32.9218 81.1217 33.8951C82.6191 32.7222 83.8919 31.9111 84.94 31.4619H87.0737C87.0488 32.4102 86.9864 33.4459 86.8866 34.5689C86.7867 35.667 86.662 36.5529 86.5122 37.2267C85.6138 37.1768 84.9525 37.1518 84.5282 37.1518C83.4801 37.1518 82.3945 37.2142 81.2715 37.339V45.8365C81.2715 46.3606 81.3089 46.71 81.3838 46.8847C81.4586 47.0594 81.6583 47.2465 81.9827 47.4462L84.2288 48.6441L84.079 51.3019H72.8488L72.6617 47.7457ZM104.998 51.7885C102.104 51.7885 99.8575 50.9026 98.2604 49.1307C96.6632 47.3339 95.8646 44.8632 95.8646 41.7188C95.8646 38.4496 96.7131 35.904 98.4101 34.0823C100.132 32.2605 102.478 31.3496 105.448 31.3496C107.694 31.3496 110.102 31.8612 112.672 32.8844C112.623 33.6081 112.51 34.5689 112.336 35.7668C112.161 36.9397 111.974 38.0253 111.774 39.0235L109.266 39.2481L106.945 36.2909C106.321 36.1661 105.622 36.1037 104.849 36.1037C104.225 36.1037 103.651 36.1411 103.127 36.216C102.553 37.3141 102.266 38.8613 102.266 40.8578C102.266 42.9042 102.628 44.4265 103.351 45.4247C104.075 46.398 105.173 46.8847 106.646 46.8847C107.344 46.8847 108.193 46.7848 109.191 46.5852C110.189 46.3606 111.213 46.0486 112.261 45.6494L113.159 49.3927C112.161 50.0915 110.913 50.6655 109.416 51.1147C107.943 51.5639 106.471 51.7885 104.998 51.7885ZM123.011 51.826C121.014 51.826 119.53 51.2395 118.556 50.0666C117.583 48.8687 117.096 47.0718 117.096 44.6761V37.9754C117.096 37.4264 117.046 37.077 116.947 36.9272C116.872 36.7525 116.66 36.5654 116.31 36.3657L114.626 35.4673L114.813 32.6598C115.162 32.6099 115.412 32.5599 115.562 32.51C115.836 32.4601 116.809 32.2854 118.481 31.986C120.178 31.6865 121.588 31.5118 122.711 31.4619C122.986 32.0858 123.198 32.8095 123.348 33.633V43.0664C123.348 44.1645 123.373 44.9381 123.423 45.3873C123.498 45.8365 123.697 46.1859 124.022 46.4355C124.371 46.6601 124.957 46.7724 125.781 46.7724C126.979 46.7724 128.139 46.5602 129.262 46.136V37.9754C129.262 37.4264 129.225 37.077 129.15 36.9272C129.075 36.7525 128.876 36.5654 128.551 36.3657L126.904 35.4673L127.054 32.6598C129.075 32.2854 130.647 31.9984 131.77 31.7988C132.918 31.5991 133.967 31.4868 134.915 31.4619C135.189 32.0858 135.402 32.8095 135.551 33.633V45.9114C135.551 46.3606 135.589 46.6725 135.664 46.8472C135.738 47.0219 135.913 47.1966 136.188 47.3713L137.685 48.2323L137.573 50.5532C136.5 50.8277 135.264 51.0773 133.867 51.3019C132.469 51.5015 131.172 51.6263 129.974 51.6762C129.874 51.3767 129.762 51.0024 129.637 50.5532C129.612 50.3536 129.549 50.1165 129.45 49.842H129.337C128.314 50.4409 127.228 50.9275 126.081 51.3019C124.957 51.6513 123.934 51.826 123.011 51.826ZM147.445 51.7885C145.249 51.7885 143.627 51.252 142.578 50.1789C141.53 49.0808 141.006 47.4212 141.006 45.2001V36.1037H138.386V33.371L145.124 27.2318L147.295 27.4939V31.7239H153.584V36.1411H147.295V43.8525C147.295 45.0504 147.457 45.849 147.782 46.2483C148.131 46.6476 148.792 46.8472 149.766 46.8472C150.589 46.8472 151.737 46.7349 153.21 46.5103L153.659 50.3286C152.76 50.7528 151.75 51.1022 150.627 51.3767C149.529 51.6513 148.468 51.7885 147.445 51.7885Z" fill="#6E5590"/>
<path d="M18.8989 64.7087L18.6165 65.6909H20.6668L20.3845 64.7087C20.2535 64.2831 20.1266 63.8452 20.0039 63.395C19.8893 62.9449 19.7747 62.4988 19.6601 62.0568H19.611C19.5046 62.507 19.39 62.9571 19.2672 63.4073C19.1526 63.8493 19.0299 64.2831 18.8989 64.7087ZM16.2102 68.9811L18.8253 60.9519H20.4949L23.11 68.9811H21.6122L20.986 66.8081H18.2851L17.6589 68.9811H16.2102ZM26.4938 69.1285C25.9454 69.1285 25.4502 69.0057 25.0082 68.7601C24.5745 68.5064 24.2266 68.1463 23.9647 67.6798C23.711 67.205 23.5841 66.6362 23.5841 65.9732C23.5841 65.3021 23.7232 64.7332 24.0015 64.2667C24.2798 63.792 24.6481 63.4319 25.1065 63.1863C25.573 62.9326 26.0723 62.8057 26.6043 62.8057C26.989 62.8057 27.3245 62.8712 27.611 63.0022C27.8975 63.1331 28.1512 63.2927 28.3722 63.481L27.6847 64.4017C27.5292 64.2626 27.3696 64.1562 27.2059 64.0825C27.0422 64.0007 26.8662 63.9598 26.6779 63.9598C26.195 63.9598 25.7981 64.1439 25.4871 64.5122C25.1842 64.8806 25.0328 65.3676 25.0328 65.9732C25.0328 66.5707 25.1801 67.0536 25.4748 67.4219C25.7776 67.7902 26.1664 67.9744 26.6411 67.9744C26.8785 67.9744 27.0995 67.9253 27.3041 67.8271C27.5169 67.7207 27.7092 67.5979 27.8811 67.4588L28.4581 68.3918C28.1799 68.6374 27.8688 68.8215 27.5251 68.9443C27.1813 69.0671 26.8375 69.1285 26.4938 69.1285ZM31.865 69.1285C31.3167 69.1285 30.8215 69.0057 30.3795 68.7601C29.9457 68.5064 29.5979 68.1463 29.336 67.6798C29.0822 67.205 28.9554 66.6362 28.9554 65.9732C28.9554 65.3021 29.0945 64.7332 29.3728 64.2667C29.6511 63.792 30.0194 63.4319 30.4777 63.1863C30.9443 62.9326 31.4435 62.8057 31.9755 62.8057C32.3602 62.8057 32.6958 62.8712 32.9823 63.0022C33.2687 63.1331 33.5225 63.2927 33.7435 63.481L33.0559 64.4017C32.9004 64.2626 32.7408 64.1562 32.5771 64.0825C32.4134 64.0007 32.2375 63.9598 32.0492 63.9598C31.5663 63.9598 31.1693 64.1439 30.8583 64.5122C30.5555 64.8806 30.4041 65.3676 30.4041 65.9732C30.4041 66.5707 30.5514 67.0536 30.846 67.4219C31.1489 67.7902 31.5377 67.9744 32.0124 67.9744C32.2497 67.9744 32.4707 67.9253 32.6753 67.8271C32.8881 67.7207 33.0805 67.5979 33.2524 67.4588L33.8294 68.3918C33.5511 68.6374 33.2401 68.8215 32.8963 68.9443C32.5526 69.0671 32.2088 69.1285 31.865 69.1285ZM37.2977 69.1285C36.7411 69.1285 36.2378 69.0057 35.7876 68.7601C35.3374 68.5064 34.9814 68.1463 34.7195 67.6798C34.4576 67.205 34.3266 66.6362 34.3266 65.9732C34.3266 65.3184 34.4576 64.7537 34.7195 64.279C34.9896 63.8043 35.3374 63.44 35.7631 63.1863C36.1887 62.9326 36.6347 62.8057 37.1013 62.8057C37.6496 62.8057 38.108 62.9285 38.4763 63.174C38.8446 63.4114 39.1229 63.747 39.3112 64.1808C39.4994 64.6064 39.5935 65.1015 39.5935 65.6663C39.5935 65.9609 39.5731 66.1901 39.5321 66.3538H35.7017C35.7671 66.8858 35.9595 67.2992 36.2787 67.5938C36.5979 67.8885 36.999 68.0358 37.4819 68.0358C37.7438 68.0358 37.9852 67.999 38.2062 67.9253C38.4354 67.8434 38.6605 67.733 38.8815 67.5938L39.3603 68.4778C39.0738 68.666 38.7546 68.8215 38.4026 68.9443C38.0507 69.0671 37.6824 69.1285 37.2977 69.1285ZM35.6894 65.3962H38.3658C38.3658 64.9297 38.2635 64.5654 38.0589 64.3035C37.8543 64.0334 37.5473 63.8984 37.1381 63.8984C36.7861 63.8984 36.471 64.0293 36.1928 64.2913C35.9227 64.545 35.7549 64.9133 35.6894 65.3962ZM42.624 69.1285C42.2147 69.1285 41.8055 69.0507 41.3963 68.8952C40.987 68.7315 40.6351 68.531 40.3404 68.2936L41.0034 67.3851C41.2735 67.5897 41.5436 67.7534 41.8137 67.8762C42.0838 67.999 42.3702 68.0603 42.6731 68.0603C43.0005 68.0603 43.2419 67.9908 43.3974 67.8516C43.5529 67.7125 43.6307 67.5406 43.6307 67.336C43.6307 67.1641 43.5652 67.025 43.4343 66.9186C43.3115 66.804 43.1519 66.7058 42.9555 66.6239C42.759 66.5339 42.5544 66.4479 42.3416 66.3661C42.0797 66.2679 41.8178 66.1492 41.5559 66.0101C41.3021 65.8627 41.0934 65.6786 40.9297 65.4576C40.766 65.2284 40.6842 64.946 40.6842 64.6105C40.6842 64.0784 40.8806 63.6447 41.2735 63.3091C41.6664 62.9735 42.1984 62.8057 42.8695 62.8057C43.2951 62.8057 43.6757 62.8794 44.0113 63.0267C44.3469 63.174 44.6374 63.3418 44.883 63.5301L44.2323 64.3895C44.0195 64.234 43.8026 64.1112 43.5816 64.0212C43.3688 63.9229 43.1437 63.8738 42.9063 63.8738C42.6035 63.8738 42.3784 63.9393 42.2311 64.0703C42.0838 64.193 42.0101 64.3485 42.0101 64.5368C42.0101 64.7742 42.1329 64.9542 42.3784 65.077C42.624 65.1998 42.9104 65.3184 43.2378 65.433C43.5161 65.5312 43.7862 65.654 44.0481 65.8013C44.31 65.9405 44.5269 66.1246 44.6988 66.3538C44.8789 66.583 44.9689 66.8858 44.9689 67.2623C44.9689 67.778 44.7684 68.2199 44.3673 68.5883C43.9663 68.9484 43.3852 69.1285 42.624 69.1285ZM47.9113 69.1285C47.5021 69.1285 47.0928 69.0507 46.6836 68.8952C46.2744 68.7315 45.9224 68.531 45.6278 68.2936L46.2907 67.3851C46.5608 67.5897 46.8309 67.7534 47.101 67.8762C47.3711 67.999 47.6576 68.0603 47.9604 68.0603C48.2878 68.0603 48.5293 67.9908 48.6848 67.8516C48.8403 67.7125 48.918 67.5406 48.918 67.336C48.918 67.1641 48.8526 67.025 48.7216 66.9186C48.5988 66.804 48.4392 66.7058 48.2428 66.6239C48.0464 66.5339 47.8417 66.4479 47.6289 66.3661C47.367 66.2679 47.1051 66.1492 46.8432 66.0101C46.5895 65.8627 46.3808 65.6786 46.2171 65.4576C46.0534 65.2284 45.9715 64.946 45.9715 64.6105C45.9715 64.0784 46.168 63.6447 46.5608 63.3091C46.9537 62.9735 47.4857 62.8057 48.1569 62.8057C48.5825 62.8057 48.9631 62.8794 49.2986 63.0267C49.6342 63.174 49.9248 63.3418 50.1703 63.5301L49.5196 64.3895C49.3068 64.234 49.0899 64.1112 48.8689 64.0212C48.6561 63.9229 48.431 63.8738 48.1937 63.8738C47.8908 63.8738 47.6658 63.9393 47.5184 64.0703C47.3711 64.193 47.2975 64.3485 47.2975 64.5368C47.2975 64.7742 47.4202 64.9542 47.6658 65.077C47.9113 65.1998 48.1978 65.3184 48.5252 65.433C48.8035 65.5312 49.0735 65.654 49.3355 65.8013C49.5974 65.9405 49.8143 66.1246 49.9862 66.3538C50.1662 66.583 50.2562 66.8858 50.2562 67.2623C50.2562 67.778 50.0557 68.2199 49.6547 68.5883C49.2536 68.9484 48.6725 69.1285 47.9113 69.1285ZM51.5167 68.9811V62.953H52.9285V68.9811H51.5167ZM52.2288 61.8972C51.975 61.8972 51.7704 61.8235 51.6149 61.6762C51.4594 61.5289 51.3816 61.3325 51.3816 61.0869C51.3816 60.8496 51.4594 60.6572 51.6149 60.5099C51.7704 60.3626 51.975 60.2889 52.2288 60.2889C52.4825 60.2889 52.6871 60.3626 52.8426 60.5099C52.9981 60.6572 53.0759 60.8496 53.0759 61.0869C53.0759 61.3325 52.9981 61.5289 52.8426 61.6762C52.6871 61.8235 52.4825 61.8972 52.2288 61.8972ZM57.6518 69.1285C57.0789 69.1285 56.5305 68.8665 56.0067 68.3427H55.9698L55.8471 68.9811H54.7298V60.3134H56.1417V62.5479L56.1049 63.5546C56.3586 63.3336 56.6369 63.1536 56.9397 63.0144C57.2426 62.8753 57.5454 62.8057 57.8482 62.8057C58.6012 62.8057 59.1865 63.084 59.6039 63.6406C60.0213 64.1971 60.23 64.9379 60.23 65.8627C60.23 66.5503 60.1072 67.1396 59.8617 67.6306C59.6162 68.1135 59.2969 68.486 58.9041 68.7479C58.5194 69.0016 58.102 69.1285 57.6518 69.1285ZM57.3572 67.9621C57.7582 67.9621 58.0938 67.7862 58.3639 67.4342C58.634 67.0823 58.769 66.5666 58.769 65.8873C58.769 65.2816 58.6667 64.811 58.4621 64.4754C58.2575 64.1398 57.926 63.972 57.4676 63.972C57.042 63.972 56.6001 64.1971 56.1417 64.6473V67.4588C56.3545 67.6388 56.5632 67.7698 56.7679 67.8516C56.9807 67.9253 57.1771 67.9621 57.3572 67.9621ZM61.6477 68.9811V62.953H63.0596V68.9811H61.6477ZM62.3598 61.8972C62.1061 61.8972 61.9015 61.8235 61.746 61.6762C61.5904 61.5289 61.5127 61.3325 61.5127 61.0869C61.5127 60.8496 61.5904 60.6572 61.746 60.5099C61.9015 60.3626 62.1061 60.2889 62.3598 60.2889C62.6135 60.2889 62.8182 60.3626 62.9737 60.5099C63.1292 60.6572 63.2069 60.8496 63.2069 61.0869C63.2069 61.3325 63.1292 61.5289 62.9737 61.6762C62.8182 61.8235 62.6135 61.8972 62.3598 61.8972ZM66.2359 69.1285C65.7367 69.1285 65.3806 68.977 65.1678 68.6742C64.9632 68.3714 64.8609 67.958 64.8609 67.4342V60.3134H66.2728V67.5079C66.2728 67.6798 66.3055 67.8025 66.371 67.8762C66.4365 67.9417 66.506 67.9744 66.5797 67.9744C66.6124 67.9744 66.6411 67.9744 66.6656 67.9744C66.6984 67.9662 66.7434 67.958 66.8007 67.9499L66.9849 69.0057C66.903 69.0384 66.7966 69.0671 66.6656 69.0916C66.5429 69.1162 66.3996 69.1285 66.2359 69.1285ZM68.194 68.9811V62.953H69.6058V68.9811H68.194ZM68.906 61.8972C68.6523 61.8972 68.4477 61.8235 68.2922 61.6762C68.1367 61.5289 68.0589 61.3325 68.0589 61.0869C68.0589 60.8496 68.1367 60.6572 68.2922 60.5099C68.4477 60.3626 68.6523 60.2889 68.906 60.2889C69.1598 60.2889 69.3644 60.3626 69.5199 60.5099C69.6754 60.6572 69.7532 60.8496 69.7532 61.0869C69.7532 61.3325 69.6754 61.5289 69.5199 61.6762C69.3644 61.8235 69.1598 61.8972 68.906 61.8972ZM73.5311 69.1285C72.8354 69.1285 72.3402 68.9279 72.0455 68.5269C71.7591 68.1176 71.6158 67.5897 71.6158 66.9431V64.0703H70.7564V63.0144L71.6895 62.953L71.8614 61.3079H73.04V62.953H74.5746V64.0703H73.04V66.9431C73.04 67.647 73.3224 67.999 73.8871 67.999C73.9935 67.999 74.104 67.9867 74.2186 67.9621C74.3332 67.9294 74.4314 67.8966 74.5133 67.8639L74.7588 68.9075C74.5951 68.9648 74.4069 69.0139 74.194 69.0548C73.9894 69.1039 73.7684 69.1285 73.5311 69.1285ZM76.2484 71.4611C76.0847 71.4611 75.9414 71.4488 75.8187 71.4243C75.6959 71.3997 75.5772 71.3711 75.4626 71.3383L75.7204 70.2334C75.7777 70.2498 75.8432 70.2661 75.9169 70.2825C75.9987 70.3071 76.0765 70.3193 76.1501 70.3193C76.4693 70.3193 76.7231 70.2211 76.9113 70.0247C77.1078 69.8364 77.2551 69.5909 77.3533 69.2881L77.4638 68.9075L75.0943 62.953H76.5307L77.5743 65.9118C77.6643 66.1738 77.7503 66.452 77.8321 66.7467C77.9221 67.0332 78.0122 67.3196 78.1022 67.6061H78.1513C78.225 67.3278 78.2986 67.0454 78.3723 66.759C78.4542 66.4643 78.5319 66.1819 78.6056 65.9118L79.5141 62.953H80.8769L78.6915 69.2512C78.4378 69.9306 78.1309 70.4667 77.7707 70.8595C77.4106 71.2606 76.9031 71.4611 76.2484 71.4611ZM84.5025 68.9811V60.9519H87.0684C87.625 60.9519 88.116 61.0132 88.5416 61.136C88.9754 61.2588 89.3151 61.4675 89.5607 61.7622C89.8144 62.0486 89.9412 62.4374 89.9412 62.9285C89.9412 63.305 89.843 63.661 89.6466 63.9966C89.4502 64.324 89.176 64.5491 88.824 64.6718V64.721C89.266 64.8192 89.6302 65.0279 89.9167 65.3471C90.2113 65.6581 90.3587 66.0837 90.3587 66.6239C90.3587 67.1559 90.2236 67.5979 89.9535 67.9499C89.6916 68.3018 89.3274 68.5637 88.8609 68.7356C88.3943 68.8993 87.8664 68.9811 87.2771 68.9811H84.5025ZM85.9266 64.2667H86.9456C87.5022 64.2667 87.9073 64.1644 88.1611 63.9598C88.4148 63.7552 88.5416 63.481 88.5416 63.1372C88.5416 62.7443 88.4107 62.466 88.1488 62.3024C87.8869 62.1387 87.494 62.0568 86.9702 62.0568H85.9266V64.2667ZM85.9266 67.8762H87.1298C87.7191 67.8762 88.1733 67.7698 88.4925 67.557C88.8117 67.336 88.9713 67.0004 88.9713 66.5503C88.9713 66.1246 88.8158 65.8177 88.5048 65.6295C88.1938 65.433 87.7354 65.3348 87.1298 65.3348H85.9266V67.8762ZM94.2834 69.1285C93.7269 69.1285 93.2235 69.0057 92.7733 68.7601C92.3232 68.5064 91.9671 68.1463 91.7052 67.6798C91.4433 67.205 91.3124 66.6362 91.3124 65.9732C91.3124 65.3184 91.4433 64.7537 91.7052 64.279C91.9753 63.8043 92.3232 63.44 92.7488 63.1863C93.1744 62.9326 93.6205 62.8057 94.087 62.8057C94.6354 62.8057 95.0937 62.9285 95.462 63.174C95.8304 63.4114 96.1086 63.747 96.2969 64.1808C96.4851 64.6064 96.5793 65.1015 96.5793 65.6663C96.5793 65.9609 96.5588 66.1901 96.5179 66.3538H92.6874C92.7529 66.8858 92.9452 67.2992 93.2644 67.5938C93.5836 67.8885 93.9847 68.0358 94.4676 68.0358C94.7295 68.0358 94.971 67.999 95.1919 67.9253C95.4211 67.8434 95.6462 67.733 95.8672 67.5938L96.346 68.4778C96.0595 68.666 95.7403 68.8215 95.3884 68.9443C95.0364 69.0671 94.6681 69.1285 94.2834 69.1285ZM92.6751 65.3962H95.3515C95.3515 64.9297 95.2492 64.5654 95.0446 64.3035C94.84 64.0334 94.5331 63.8984 94.1238 63.8984C93.7719 63.8984 93.4568 64.0293 93.1785 64.2913C92.9084 64.545 92.7406 64.9133 92.6751 65.3962ZM97.9277 68.9811V62.953H99.0941L99.1923 63.7633H99.2414C99.5115 63.5014 99.8061 63.2763 100.125 63.0881C100.445 62.8998 100.809 62.8057 101.218 62.8057C101.865 62.8057 102.335 63.0144 102.63 63.4319C102.925 63.8493 103.072 64.4386 103.072 65.1998V68.9811H101.66V65.3839C101.66 64.8846 101.586 64.5327 101.439 64.3281C101.292 64.1235 101.05 64.0212 100.715 64.0212C100.453 64.0212 100.219 64.0866 100.015 64.2176C99.8184 64.3404 99.5933 64.5245 99.3396 64.7701V68.9811H97.9277ZM107.314 69.1285C106.766 69.1285 106.271 69.0057 105.829 68.7601C105.395 68.5064 105.047 68.1463 104.785 67.6798C104.532 67.205 104.405 66.6362 104.405 65.9732C104.405 65.3021 104.544 64.7332 104.822 64.2667C105.101 63.792 105.469 63.4319 105.927 63.1863C106.394 62.9326 106.893 62.8057 107.425 62.8057C107.81 62.8057 108.145 62.8712 108.432 63.0022C108.718 63.1331 108.972 63.2927 109.193 63.481L108.505 64.4017C108.35 64.2626 108.19 64.1562 108.027 64.0825C107.863 64.0007 107.687 63.9598 107.499 63.9598C107.016 63.9598 106.619 64.1439 106.308 64.5122C106.005 64.8806 105.854 65.3676 105.854 65.9732C105.854 66.5707 106.001 67.0536 106.295 67.4219C106.598 67.7902 106.987 67.9744 107.462 67.9744C107.699 67.9744 107.92 67.9253 108.125 67.8271C108.338 67.7207 108.53 67.5979 108.702 67.4588L109.279 68.3918C109.001 68.6374 108.69 68.8215 108.346 68.9443C108.002 69.0671 107.658 69.1285 107.314 69.1285ZM110.469 68.9811V60.3134H111.881V62.5479L111.831 63.7142C112.085 63.4769 112.368 63.2682 112.679 63.0881C112.99 62.8998 113.35 62.8057 113.759 62.8057C114.406 62.8057 114.876 63.0144 115.171 63.4319C115.465 63.8493 115.613 64.4386 115.613 65.1998V68.9811H114.201V65.3839C114.201 64.8846 114.127 64.5327 113.98 64.3281C113.833 64.1235 113.591 64.0212 113.256 64.0212C112.994 64.0212 112.76 64.0866 112.556 64.2176C112.359 64.3404 112.134 64.5245 111.881 64.7701V68.9811H110.469ZM117.315 68.9811V62.953H118.481L118.579 63.7756H118.628C118.882 63.5055 119.156 63.2763 119.451 63.0881C119.754 62.8998 120.093 62.8057 120.47 62.8057C120.912 62.8057 121.264 62.9039 121.526 63.1004C121.796 63.2886 122 63.5505 122.14 63.8861C122.426 63.5751 122.725 63.3173 123.036 63.1126C123.355 62.908 123.703 62.8057 124.079 62.8057C124.718 62.8057 125.188 63.0144 125.491 63.4319C125.794 63.8493 125.945 64.4386 125.945 65.1998V68.9811H124.521V65.3839C124.521 64.8846 124.444 64.5327 124.288 64.3281C124.141 64.1235 123.912 64.0212 123.601 64.0212C123.224 64.0212 122.803 64.2708 122.336 64.7701V68.9811H120.924V65.3839C120.924 64.8846 120.846 64.5327 120.691 64.3281C120.544 64.1235 120.31 64.0212 119.991 64.0212C119.615 64.0212 119.193 64.2708 118.727 64.7701V68.9811H117.315ZM129.122 69.1285C128.599 69.1285 128.169 68.9648 127.833 68.6374C127.506 68.31 127.342 67.8844 127.342 67.3605C127.342 66.7139 127.625 66.2147 128.189 65.8627C128.754 65.5026 129.655 65.2571 130.89 65.1261C130.882 64.8069 130.796 64.5327 130.633 64.3035C130.477 64.0662 130.195 63.9475 129.785 63.9475C129.491 63.9475 129.2 64.0048 128.914 64.1194C128.635 64.234 128.361 64.3731 128.091 64.5368L127.576 63.5915C127.911 63.3787 128.288 63.1945 128.705 63.039C129.131 62.8835 129.581 62.8057 130.056 62.8057C130.809 62.8057 131.369 63.0308 131.738 63.481C132.114 63.9229 132.302 64.5654 132.302 65.4085V68.9811H131.136L131.038 68.3182H130.989C130.719 68.5473 130.428 68.7397 130.117 68.8952C129.814 69.0507 129.483 69.1285 129.122 69.1285ZM129.577 68.0235C129.822 68.0235 130.043 67.9662 130.24 67.8516C130.444 67.7289 130.661 67.5652 130.89 67.3605V66.0101C130.072 66.1165 129.503 66.2761 129.184 66.4889C128.865 66.6935 128.705 66.9472 128.705 67.2501C128.705 67.5201 128.787 67.7166 128.951 67.8394C129.114 67.9621 129.323 68.0235 129.577 68.0235ZM133.992 68.9811V62.953H135.158L135.256 64.0212H135.306C135.518 63.6283 135.776 63.3295 136.079 63.1249C136.382 62.9121 136.693 62.8057 137.012 62.8057C137.299 62.8057 137.528 62.8466 137.7 62.9285L137.454 64.1562C137.348 64.1235 137.249 64.0989 137.159 64.0825C137.069 64.0662 136.959 64.058 136.828 64.058C136.591 64.058 136.341 64.1521 136.079 64.3404C135.817 64.5204 135.592 64.8396 135.404 65.298V68.9811H133.992ZM138.572 68.9811V60.3134H139.959V65.7277H139.996L142.23 62.953H143.777L141.715 65.4085L143.986 68.9811H142.451L140.905 66.3661L139.959 67.4465V68.9811H138.572ZM146.668 69.1285C146.259 69.1285 145.85 69.0507 145.44 68.8952C145.031 68.7315 144.679 68.531 144.385 68.2936L145.048 67.3851C145.318 67.5897 145.588 67.7534 145.858 67.8762C146.128 67.999 146.414 68.0603 146.717 68.0603C147.045 68.0603 147.286 67.9908 147.442 67.8516C147.597 67.7125 147.675 67.5406 147.675 67.336C147.675 67.1641 147.609 67.025 147.478 66.9186C147.356 66.804 147.196 66.7058 147 66.6239C146.803 66.5339 146.599 66.4479 146.386 66.3661C146.124 66.2679 145.862 66.1492 145.6 66.0101C145.346 65.8627 145.138 65.6786 144.974 65.4576C144.81 65.2284 144.728 64.946 144.728 64.6105C144.728 64.0784 144.925 63.6447 145.318 63.3091C145.711 62.9735 146.243 62.8057 146.914 62.8057C147.339 62.8057 147.72 62.8794 148.056 63.0267C148.391 63.174 148.682 63.3418 148.927 63.5301L148.277 64.3895C148.064 64.234 147.847 64.1112 147.626 64.0212C147.413 63.9229 147.188 63.8738 146.951 63.8738C146.648 63.8738 146.423 63.9393 146.275 64.0703C146.128 64.193 146.054 64.3485 146.054 64.5368C146.054 64.7742 146.177 64.9542 146.423 65.077C146.668 65.1998 146.955 65.3184 147.282 65.433C147.56 65.5312 147.83 65.654 148.092 65.8013C148.354 65.9405 148.571 66.1246 148.743 66.3538C148.923 66.583 149.013 66.8858 149.013 67.2623C149.013 67.778 148.813 68.2199 148.412 68.5883C148.011 68.9484 147.429 69.1285 146.668 69.1285Z" fill="#6E5590"/>
<path d="M49.9941 8.40405L53.442 15.3944H46.5463L49.9941 8.40405Z" fill="#6E5590"/>
<path d="M145.057 8.40405L148.505 15.3944H141.609L145.057 8.40405Z" fill="#6E5590"/>
<path d="M97.7717 7.24493L102.205 15.8045H93.3387L97.7717 7.24493Z" fill="#6E5590"/>
<path d="M97.7013 5.49734L100.34 10.8471H95.0626L97.7013 5.49734Z" fill="#6E5590"/>
<rect x="96.5403" y="15.3944" width="2.70904" height="3.49517" fill="#6E5590"/>
<rect x="112.302" y="16.6427" width="2.70904" height="2.24689" fill="#6E5590"/>
<rect x="80.5323" y="16.6427" width="2.70904" height="2.24689" fill="#6E5590"/>
<rect x="64.5244" y="16.6427" width="2.70904" height="2.24689" fill="#6E5590"/>
<rect x="48.7627" y="15.3944" width="2.70904" height="3.49517" fill="#6E5590"/>
<rect x="128.064" y="16.6427" width="2.70904" height="2.24689" fill="#6E5590"/>
<rect x="143.825" y="15.3944" width="2.70904" height="3.49517" fill="#6E5590"/>
<rect x="88.5858" y="43.6236" width="2.7" height="3" transform="rotate(-90 88.5858 43.6236)" fill="#6E5590"/>
</svg>
