<svg fill="none" height="314" viewBox="0 0 307 314" width="307" xmlns="http://www.w3.org/2000/svg" xmlns:xlink="http://www.w3.org/1999/xlink"><filter id="a" color-interpolation-filters="sRGB" filterUnits="userSpaceOnUse" height="115.759" width="280.566" x="23.6823" y="126.393"><feFlood flood-opacity="0" result="BackgroundImageFix"/><feColorMatrix in="SourceAlpha" result="hardAlpha" type="matrix" values="0 0 0 0 0 0 0 0 0 0 0 0 0 0 0 0 0 0 127 0"/><feOffset dx="4" dy="4"/><feGaussianBlur stdDeviation="1"/><feComposite in2="hardAlpha" operator="out"/><feColorMatrix type="matrix" values="0 0 0 0 0 0 0 0 0 0 0 0 0 0 0 0 0 0 0.1 0"/><feBlend in2="BackgroundImageFix" mode="normal" result="effect1_dropShadow_215_1075"/><feBlend in="SourceGraphic" in2="effect1_dropShadow_215_1075" mode="normal" result="shape"/></filter><filter id="b" color-interpolation-filters="sRGB" filterUnits="userSpaceOnUse" height="131.244" width="222.46" x="84" y="89"><feFlood flood-opacity="0" result="BackgroundImageFix"/><feColorMatrix in="SourceAlpha" result="hardAlpha" type="matrix" values="0 0 0 0 0 0 0 0 0 0 0 0 0 0 0 0 0 0 127 0"/><feOffset dx="4" dy="4"/><feGaussianBlur stdDeviation="1"/><feComposite in2="hardAlpha" operator="out"/><feColorMatrix type="matrix" values="0 0 0 0 0 0 0 0 0 0 0 0 0 0 0 0 0 0 0.1 0"/><feBlend in2="BackgroundImageFix" mode="normal" result="effect1_dropShadow_215_1075"/><feBlend in="SourceGraphic" in2="effect1_dropShadow_215_1075" mode="normal" result="shape"/></filter><filter id="c" color-interpolation-filters="sRGB" filterUnits="userSpaceOnUse" height="194.582" width="210.482" x="65" y="29"><feFlood flood-opacity="0" result="BackgroundImageFix"/><feColorMatrix in="SourceAlpha" result="hardAlpha" type="matrix" values="0 0 0 0 0 0 0 0 0 0 0 0 0 0 0 0 0 0 127 0"/><feOffset dx="4" dy="4"/><feGaussianBlur stdDeviation="1"/><feComposite in2="hardAlpha" operator="out"/><feColorMatrix type="matrix" values="0 0 0 0 0 0 0 0 0 0 0 0 0 0 0 0 0 0 0.1 0"/><feBlend in2="BackgroundImageFix" mode="normal" result="effect1_dropShadow_215_1075"/><feBlend in="SourceGraphic" in2="effect1_dropShadow_215_1075" mode="normal" result="shape"/></filter><filter id="d" color-interpolation-filters="sRGB" filterUnits="userSpaceOnUse" height="222.583" width="160.187" x="56" y="0"><feFlood flood-opacity="0" result="BackgroundImageFix"/><feColorMatrix in="SourceAlpha" result="hardAlpha" type="matrix" values="0 0 0 0 0 0 0 0 0 0 0 0 0 0 0 0 0 0 127 0"/><feOffset dx="4" dy="4"/><feGaussianBlur stdDeviation="1"/><feComposite in2="hardAlpha" operator="out"/><feColorMatrix type="matrix" values="0 0 0 0 0 0 0 0 0 0 0 0 0 0 0 0 0 0 0.1 0"/><feBlend in2="BackgroundImageFix" mode="normal" result="effect1_dropShadow_215_1075"/><feBlend in="SourceGraphic" in2="effect1_dropShadow_215_1075" mode="normal" result="shape"/></filter><filter id="e" color-interpolation-filters="sRGB" filterUnits="userSpaceOnUse" height="218.249" width="107.818" x="33.5908" y="5.87554"><feFlood flood-opacity="0" result="BackgroundImageFix"/><feColorMatrix in="SourceAlpha" result="hardAlpha" type="matrix" values="0 0 0 0 0 0 0 0 0 0 0 0 0 0 0 0 0 0 127 0"/><feOffset dx="4" dy="4"/><feGaussianBlur stdDeviation="1"/><feComposite in2="hardAlpha" operator="out"/><feColorMatrix type="matrix" values="0 0 0 0 0 0 0 0 0 0 0 0 0 0 0 0 0 0 0.1 0"/><feBlend in2="BackgroundImageFix" mode="normal" result="effect1_dropShadow_215_1075"/><feBlend in="SourceGraphic" in2="effect1_dropShadow_215_1075" mode="normal" result="shape"/></filter><filter id="f" color-interpolation-filters="sRGB" filterUnits="userSpaceOnUse" height="108.031" width="96.4567" x="167.173" y="138"><feFlood flood-opacity="0" result="BackgroundImageFix"/><feColorMatrix in="SourceAlpha" result="hardAlpha" type="matrix" values="0 0 0 0 0 0 0 0 0 0 0 0 0 0 0 0 0 0 127 0"/><feOffset dx="3.08661" dy="3.08661"/><feGaussianBlur stdDeviation=".771654"/><feComposite in2="hardAlpha" operator="out"/><feColorMatrix type="matrix" values="0 0 0 0 0 0 0 0 0 0 0 0 0 0 0 0 0 0 0.1 0"/><feBlend in2="BackgroundImageFix" mode="normal" result="effect1_dropShadow_215_1075"/><feBlend in="SourceGraphic" in2="effect1_dropShadow_215_1075" mode="normal" result="shape"/></filter><filter id="g" color-interpolation-filters="sRGB" filterUnits="userSpaceOnUse" height="108.032" width="96.4567" x="161" y="144.945"><feFlood flood-opacity="0" result="BackgroundImageFix"/><feColorMatrix in="SourceAlpha" result="hardAlpha" type="matrix" values="0 0 0 0 0 0 0 0 0 0 0 0 0 0 0 0 0 0 127 0"/><feOffset dx="3.08661" dy="3.08661"/><feGaussianBlur stdDeviation=".771654"/><feComposite in2="hardAlpha" operator="out"/><feColorMatrix type="matrix" values="0 0 0 0 0 0 0 0 0 0 0 0 0 0 0 0 0 0 0.1 0"/><feBlend in2="BackgroundImageFix" mode="normal" result="effect1_dropShadow_215_1075"/><feBlend in="SourceGraphic" in2="effect1_dropShadow_215_1075" mode="normal" result="shape"/></filter><filter id="h" color-interpolation-filters="sRGB" filterUnits="userSpaceOnUse" height="149.879" width="366.958" x="8.13391" y="106.684"><feFlood flood-opacity="0" result="BackgroundImageFix"/><feColorMatrix in="SourceAlpha" result="hardAlpha" type="matrix" values="0 0 0 0 0 0 0 0 0 0 0 0 0 0 0 0 0 0 127 0"/><feOffset dx="4" dy="4"/><feGaussianBlur stdDeviation="1"/><feComposite in2="hardAlpha" operator="out"/><feColorMatrix type="matrix" values="0 0 0 0 0 0 0 0 0 0 0 0 0 0 0 0 0 0 0.1 0"/><feBlend in2="BackgroundImageFix" mode="normal" result="effect1_dropShadow_215_1075"/><feBlend in="SourceGraphic" in2="effect1_dropShadow_215_1075" mode="normal" result="shape"/></filter><filter id="i" color-interpolation-filters="sRGB" filterUnits="userSpaceOnUse" height="170.177" width="290.569" x="87.4305" y="57.6667"><feFlood flood-opacity="0" result="BackgroundImageFix"/><feColorMatrix in="SourceAlpha" result="hardAlpha" type="matrix" values="0 0 0 0 0 0 0 0 0 0 0 0 0 0 0 0 0 0 127 0"/><feOffset dx="4" dy="4"/><feGaussianBlur stdDeviation="1"/><feComposite in2="hardAlpha" operator="out"/><feColorMatrix type="matrix" values="0 0 0 0 0 0 0 0 0 0 0 0 0 0 0 0 0 0 0.1 0"/><feBlend in2="BackgroundImageFix" mode="normal" result="effect1_dropShadow_215_1075"/><feBlend in="SourceGraphic" in2="effect1_dropShadow_215_1075" mode="normal" result="shape"/></filter><filter id="j" color-interpolation-filters="sRGB" filterUnits="userSpaceOnUse" height="253.205" width="274.822" x="62.4523" y="-20.985"><feFlood flood-opacity="0" result="BackgroundImageFix"/><feColorMatrix in="SourceAlpha" result="hardAlpha" type="matrix" values="0 0 0 0 0 0 0 0 0 0 0 0 0 0 0 0 0 0 127 0"/><feOffset dx="4" dy="4"/><feGaussianBlur stdDeviation="1"/><feComposite in2="hardAlpha" operator="out"/><feColorMatrix type="matrix" values="0 0 0 0 0 0 0 0 0 0 0 0 0 0 0 0 0 0 0.1 0"/><feBlend in2="BackgroundImageFix" mode="normal" result="effect1_dropShadow_215_1075"/><feBlend in="SourceGraphic" in2="effect1_dropShadow_215_1075" mode="normal" result="shape"/></filter><filter id="k" color-interpolation-filters="sRGB" filterUnits="userSpaceOnUse" height="289.91" width="208.702" x="50.6203" y="-59"><feFlood flood-opacity="0" result="BackgroundImageFix"/><feColorMatrix in="SourceAlpha" result="hardAlpha" type="matrix" values="0 0 0 0 0 0 0 0 0 0 0 0 0 0 0 0 0 0 127 0"/><feOffset dx="4" dy="4"/><feGaussianBlur stdDeviation="1"/><feComposite in2="hardAlpha" operator="out"/><feColorMatrix type="matrix" values="0 0 0 0 0 0 0 0 0 0 0 0 0 0 0 0 0 0 0.1 0"/><feBlend in2="BackgroundImageFix" mode="normal" result="effect1_dropShadow_215_1075"/><feBlend in="SourceGraphic" in2="effect1_dropShadow_215_1075" mode="normal" result="shape"/></filter><filter id="l" color-interpolation-filters="sRGB" filterUnits="userSpaceOnUse" height="284.229" width="139.855" x="21.1602" y="-51.298"><feFlood flood-opacity="0" result="BackgroundImageFix"/><feColorMatrix in="SourceAlpha" result="hardAlpha" type="matrix" values="0 0 0 0 0 0 0 0 0 0 0 0 0 0 0 0 0 0 127 0"/><feOffset dx="4" dy="4"/><feGaussianBlur stdDeviation="1"/><feComposite in2="hardAlpha" operator="out"/><feColorMatrix type="matrix" values="0 0 0 0 0 0 0 0 0 0 0 0 0 0 0 0 0 0 0.1 0"/><feBlend in2="BackgroundImageFix" mode="normal" result="effect1_dropShadow_215_1075"/><feBlend in="SourceGraphic" in2="effect1_dropShadow_215_1075" mode="normal" result="shape"/></filter><clipPath id="m"><rect height="204" rx="8" transform="matrix(.25881905 .96592583 -.96592583 .25881905 294.275565 -205.507383)" width="75" x="281.049" y="89"/></clipPath><clipPath id="n"><rect height="204" rx="8" transform="matrix(.64278761 .76604444 -.76604444 .64278761 101.256746 -159.145793)" width="75" x="221.273" y="29"/></clipPath><clipPath id="o"><rect height="204" rx="8" transform="matrix(.90630779 .42261826 -.42261826 .90630779 13.324344 -60.102233)" width="75" x="142.214"/></clipPath><clipPath id="p"><rect height="204" rx="8" transform="matrix(.99087027 -.13481876 .13481876 .99087027 -1.848659 4.674626)" width="75" x="33.5908" y="15.9869"/></clipPath><clipPath id="q"><rect height="268.137" rx="8" transform="matrix(.259517 .965739 -.966112 .258123 346.481 57.6667)" width="98.3337"/></clipPath><clipPath id="r"><rect height="267.869" rx="8" transform="matrix(.643876 .76513 -.766957 .641699 267.897 -20.985)" width="98.4321"/></clipPath><clipPath id="s"><rect height="267.554" rx="8" transform="matrix(.906774 .421617 -.423621 .90584 163.962 -59)" width="98.548"/></clipPath><clipPath id="t"><rect height="267.43" rx="8" transform="matrix(.990922 -.134437 .135201 .990818 21.1602 -38.0433)" width="98.5936"/></clipPath><mask id="u" height="120" maskUnits="userSpaceOnUse" width="120" x="13" y="125"><circle cx="73.1458" cy="185.146" fill="#d9d9d9" r="59.5"/></mask><rect fill="#f5f5f2" height="230" rx="8" width="210" x="20" y="37"/><g filter="url(#a)" stroke="#6e5590" stroke-width="2"><path d="m34.8364 127.618h271.436v38.3643h-271.436z" fill="#eee7cf" transform="matrix(.96592583 .25881905 -.25881905 .96592583 34.21699 -4.667846)"/><path d="m72.8265 136.762-2.022 7.546"/><path d="m53.9609 131.707-1.4443 5.39"/><path d="m44.5281 129.179-.9629 3.594"/><path d="m63.3937 134.234-.9629 3.594"/><path d="m72.8265 136.762-2.022 7.546"/><path d="m110.558 146.872-2.022 7.546"/><path d="m91.6921 141.817-1.4443 5.39"/><path d="m82.2593 139.289-.9628 3.594"/><path d="m101.125 144.344-.963 3.594"/><path d="m110.558 146.872-2.022 7.546"/><path d="m148.289 156.982-2.022 7.546"/><path d="m129.423 151.927-1.444 5.39"/><path d="m119.991 149.399-.963 3.594"/><path d="m138.856 154.454-.963 3.594"/><path d="m148.289 156.982-2.022 7.546"/><path d="m186.02 167.092-2.022 7.546"/><path d="m167.155 162.037-1.445 5.39"/><path d="m157.722 159.509-.963 3.594"/><path d="m176.587 164.564-.962 3.594"/><path d="m186.02 167.092-2.022 7.546"/><path d="m223.751 177.202-2.022 7.546"/><path d="m204.886 172.147-1.444 5.39"/><path d="m195.453 169.62-.963 3.593"/><path d="m214.319 174.675-.963 3.593"/><path d="m223.751 177.202-2.022 7.546"/><path d="m261.483 187.312-2.022 7.546"/><path d="m242.617 182.257-1.444 5.39"/><path d="m233.184 179.73-.963 3.593"/><path d="m252.05 184.785-.963 3.593"/><path d="m261.483 187.312-2.022 7.546"/><path d="m280.348 192.367-1.444 5.39"/><path d="m270.916 189.84-.963 3.593"/><path d="m289.781 194.895-.963 3.593"/></g><g filter="url(#b)"><g clip-path="url(#m)"><path d="m281.049 89h75v204h-75z" fill="#fff" transform="matrix(.25881905 .96592583 -.96592583 .25881905 294.275565 -205.507383)"/><g fill="#b5b809"><path d="m281.049 89h75v60h-75z" opacity=".3" transform="matrix(.25881905 .96592583 -.96592583 .25881905 294.275565 -205.507383)"/><path d="m211.502 107.635h75v60h-75z" opacity=".6" transform="matrix(.25881905 .96592583 -.96592583 .25881905 260.728681 -124.518232)"/><path d="m141.956 126.27h75v60h-75z" transform="matrix(.25881905 .96592583 -.96592583 .25881905 227.182538 -43.530047)"/></g><circle cx="115.786" cy="192.81" fill="#fff" r="8" stroke="#6e5590" transform="matrix(.25881905 .96592583 -.96592583 .25881905 272.058537 31.066412)"/></g><rect height="202" rx="7" shape-rendering="crispEdges" stroke="#6e5590" stroke-width="2" transform="matrix(.25881905 .96592583 -.96592583 .25881905 294.934519 -203.916749)" width="73" x="280.342" y="90.2247"/></g><g filter="url(#c)"><g clip-path="url(#n)"><path d="m221.273 29h75v204h-75z" fill="#fff" transform="matrix(.64278761 .76604444 -.76604444 .64278761 101.256746 -159.145793)"/><g fill="#b0aa75"><path d="m221.273 29h75v60h-75z" opacity=".3" transform="matrix(.64278761 .76604444 -.76604444 .64278761 101.256746 -159.145793)"/><path d="m166.118 75.2807h75v60h-75z" opacity=".6" transform="matrix(.64278761 .76604444 -.76604444 .64278761 117.00777 -100.362572)"/><path d="m110.963 121.561h75v60h-75z" transform="matrix(.64278761 .76604444 -.76604444 .64278761 132.758487 -41.579494)"/></g><circle cx="115.366" cy="192.927" fill="#fff" r="8" stroke="#6e5590" transform="matrix(.64278761 .76604444 -.76604444 .64278761 189.000821 -19.459568)"/></g><rect height="202" rx="7" shape-rendering="crispEdges" stroke="#6e5590" stroke-width="2" transform="matrix(.64278761 .76604444 -.76604444 .64278761 102.292012 -158.548328)" width="73" x="221.15" y="30.4088"/></g><g filter="url(#d)"><g clip-path="url(#o)"><path d="m142.214 0h75v204h-75z" fill="#fff" transform="matrix(.90630779 .42261826 -.42261826 .90630779 13.324344 -60.102233)"/><g fill="#ab9f9d"><path d="m142.214 0h75v60h-75z" opacity=".3" transform="matrix(.90630779 .42261826 -.42261826 .90630779 13.324344 -60.102233)"/><path d="m111.786 65.2542h75v60h-75z" opacity=".6" transform="matrix(.90630779 .42261826 -.42261826 .90630779 38.051094 -41.128995)"/><path d="m81.3571 130.508h75v60h-75z" transform="matrix(.90630779 .42261826 -.42261826 .90630779 62.777591 -22.155413)"/></g><circle cx="115.509" cy="193.327" fill="#fff" r="8" stroke="#6e5590" transform="matrix(.90630779 .42261826 -.42261826 .90630779 92.525815 -30.702978)"/></g><rect height="202" rx="7" shape-rendering="crispEdges" stroke="#6e5590" stroke-width="2" transform="matrix(.90630779 .42261826 -.42261826 .90630779 13.931321 -60.18227)" width="73" x="142.698" y="1.32893"/></g><g filter="url(#e)"><g clip-path="url(#p)"><path d="m33.5908 15.9869h75v204h-75z" fill="#fff" transform="matrix(.99087027 -.13481876 .13481876 .99087027 -1.848659 4.674626)"/><g fill="#ad91d2"><path d="m33.5908 15.9869h75v60h-75z" opacity=".3" transform="matrix(.99087027 -.13481876 .13481876 .99087027 -1.848659 4.674626)"/><path d="m43.2978 87.3296h75v60h-75z" opacity=".6" transform="matrix(.99087027 -.13481876 .13481876 .99087027 -11.378372 6.634651)"/><path d="m53.0047 158.672h75v60h-75z" transform="matrix(.99087027 -.13481876 .13481876 .99087027 -20.908044 8.59466)"/></g><circle cx="115.71" cy="193.032" fill="#fff" r="8" stroke="#6e5590" transform="matrix(.99087027 -.13481876 .13481876 .99087027 -24.967935 17.362208)"/></g><rect height="202" rx="7" shape-rendering="crispEdges" stroke="#6e5590" stroke-width="2" transform="matrix(.99087027 -.13481876 .13481876 .99087027 -1.9538 4.834208)" width="73" x="34.7165" y="16.843"/></g><g filter="url(#f)"><path d="m167.173 138h91.8268v103.402h-91.8268z" fill="#fff"/><path d="m168.173 139h89.8268v101.402h-89.8268z" stroke="#6e5590" stroke-width="2"/></g><g filter="url(#g)"><path d="m161 144.945h91.8268v103.402h-91.8268z" fill="#fff"/><path d="m162 145.945h89.8268v101.402h-89.8268z" stroke="#6e5590" stroke-width="2"/></g><path d="m195.392 200.135-6.251-14.876-6.172 14.876zm-23.316 13.873v-.976c1.39-.158 2.427-.686 3.113-1.582.703-.897 1.899-3.333 3.587-7.306l11.262-26.507h1.055l13.451 30.621c.897 2.04 1.609 3.306 2.136 3.798.545.475 1.451.8 2.717.976v.976h-13.741v-.976c1.582-.141 2.602-.308 3.059-.501.457-.211.686-.712.686-1.503 0-.264-.088-.73-.264-1.398-.176-.669-.422-1.372-.738-2.11l-2.242-5.196h-14.137c-1.407 3.534-2.251 5.697-2.532 6.488-.264.774-.396 1.389-.396 1.846 0 .915.369 1.548 1.108 1.899.457.211 1.319.37 2.585.475v.976zm53.726-14.612c-2.022.668-3.692 1.407-5.011 2.216-2.532 1.565-3.798 3.341-3.798 5.327 0 1.6.527 2.779 1.582 3.535.686.492 1.451.738 2.295.738 1.16 0 2.268-.325 3.323-.976 1.073-.65 1.609-1.477 1.609-2.479zm-13.504 9.363c0-2.549 1.275-4.677 3.824-6.382 1.618-1.055 4.845-2.488 9.68-4.3v-2.241c0-1.794-.176-3.042-.527-3.746-.598-1.178-1.838-1.767-3.719-1.767-.897 0-1.75.229-2.559.686-.808.475-1.213 1.125-1.213 1.952 0 .211.044.571.132 1.081.088.492.132.809.132.95 0 .984-.325 1.67-.976 2.057-.369.228-.809.343-1.319.343-.791 0-1.398-.255-1.82-.765-.422-.528-.633-1.108-.633-1.741 0-1.231.756-2.514 2.269-3.851 1.529-1.354 3.762-2.03 6.699-2.03 3.411 0 5.723 1.107 6.936 3.323.651 1.213.976 2.98.976 5.301v10.576c0 1.02.071 1.724.211 2.11.229.686.704 1.029 1.425 1.029.404 0 .738-.062 1.002-.185s.721-.422 1.371-.896v1.371c-.562.686-1.169 1.249-1.82 1.688-.984.668-1.987 1.002-3.006 1.002-1.196 0-2.066-.386-2.611-1.16-.528-.774-.818-1.697-.871-2.769-1.336 1.16-2.479 2.022-3.429 2.584-1.6.95-3.121 1.425-4.562 1.425-1.513 0-2.823-.528-3.93-1.583-1.108-1.073-1.662-2.426-1.662-4.062z" fill="#6e5590"/><circle cx="73.1457" cy="185.146" r="64" stroke="#6e5590" stroke-width="9" transform="matrix(.70710678 -.70710678 .70710678 .70710678 -109.494113 105.949828)"/><path d="m120.522 245.957h19v95h-19z" fill="#6e5590" transform="matrix(.70710678 -.70710678 .70710678 .70710678 -138.617786 157.261061)"/><path d="m0 0h11v11h-11z" fill="#6e5590" transform="matrix(.707107 -.707107 -.707107 -.707107 123.35 243.128)"/><g mask="url(#u)"><rect fill="#f5f5f2" height="301.498" rx="8" width="276.076" x="3.29297" y="-10.4981"/><g filter="url(#h)" stroke="#6e5590" stroke-width="2"><path d="m.706595 1.22386h357.403v50.9223h-357.403z" fill="#eee7cf" transform="matrix(.966112 .258123 -.259517 .965739 22.2097 106.543)"/><path d="m0-1h10.243" transform="matrix(-.259517 .965739 -.966112 -.258123 71.4714 119.937)"/><path d="m0-1h10.243" transform="matrix(-.259517 .965739 -.966112 -.258123 71.4714 119.937)"/><path d="m0-1h10.243" transform="matrix(-.259517 .965739 -.966112 -.258123 121.075 133.189)"/><path d="m0-1h7.31645" transform="matrix(-.259517 .965739 -.966112 -.258123 96.2731 126.563)"/><path d="m0-1h4.87763" transform="matrix(-.259517 .965739 -.966112 -.258123 83.8723 123.25)"/><path d="m0-1h4.87763" transform="matrix(-.259517 .965739 -.966112 -.258123 108.674 129.876)"/><path d="m0-1h10.243" transform="matrix(-.259517 .965739 -.966112 -.258123 121.075 133.189)"/><path d="m0-1h4.87763" transform="matrix(-.259517 .965739 -.966112 -.258123 133.476 136.503)"/></g><g filter="url(#i)"><g clip-path="url(#q)"><path d="m0 0h98.3337v268.137h-98.3337z" fill="#fff" transform="matrix(.259517 .965739 -.966112 .258123 346.481 57.6667)"/><path d="m0 0h98.3337v78.8638h-98.3337z" fill="#b5b809" transform="matrix(.259517 .965739 -.966112 .258123 163.622 106.522)"/><path d="m131.98 204.028c-5.695 1.521-11.548-1.849-13.073-7.525-1.525-5.677 1.853-11.513 7.548-13.035 5.696-1.522 11.548 1.849 13.073 7.525 1.526 5.676-1.852 11.513-7.548 13.035z" fill="#fff" stroke="#6e5590"/></g><rect height="266.137" rx="7" shape-rendering="crispEdges" stroke="#6e5590" stroke-width="2" transform="matrix(.259517 .965739 -.966112 .258123 347.14 59.257)" width="96.3337" x="-.706595" y="1.22386"/></g><g filter="url(#j)"><g clip-path="url(#r)"><path d="m0 0h98.4321v267.869h-98.4321z" fill="#fff" transform="matrix(.643876 .76513 -.766957 .641699 267.897 -20.985)"/><path d="m0 0h98.4321v78.7851h-98.4321z" fill="#b0aa75" transform="matrix(.643876 .76513 -.766957 .641699 122.877 100.35)"/><path d="m135.527 202.054c-4.516 3.779-11.249 3.191-15.038-1.312-3.789-4.502-3.2-11.215 1.316-14.994 4.516-3.778 11.249-3.191 15.038 1.312 3.789 4.502 3.2 11.216-1.316 14.994z" fill="#fff" stroke="#6e5590"/></g><rect height="265.869" rx="7" shape-rendering="crispEdges" stroke="#6e5590" stroke-width="2" transform="matrix(.643876 .76513 -.766957 .641699 268.932 -20.3868)" width="96.4321" x="-.123081" y="1.40683"/></g><g filter="url(#k)"><g clip-path="url(#s)"><path d="m0 0h98.548v267.554h-98.548z" fill="#fff" transform="matrix(.906774 .421617 -.423621 .90584 163.962 -59)"/><path d="m0 0h98.548v78.6923h-98.548z" fill="#ab9f9d" opacity=".6" transform="matrix(.906774 .421617 -.423621 .90584 123.959 26.5392)"/><path d="m0 0h98.548v78.6923h-98.548z" fill="#ab9f9d" transform="matrix(.906774 .421617 -.423621 .90584 83.956 112.078)"/><path d="m138.527 198.923c-2.49 5.326-8.841 7.632-14.185 5.147-5.343-2.484-7.654-8.817-5.163-14.143 2.491-5.327 8.841-7.632 14.185-5.148 5.344 2.485 7.654 8.818 5.163 14.144z" fill="#fff" stroke="#6e5590"/></g><rect height="265.554" rx="7" shape-rendering="crispEdges" stroke="#6e5590" stroke-width="2" transform="matrix(.906774 .421617 -.423621 .90584 164.569 -59.0787)" width="96.548" x=".483153" y="1.32746"/></g><g filter="url(#l)"><g clip-path="url(#t)"><path d="m0 0h98.5936v267.43h-98.5936z" fill="#fff" transform="matrix(.990922 -.134437 .135201 .990818 21.1602 -38.0433)"/><path d="m0 0h98.5936v78.6558h-98.5936z" fill="#ad91d2" opacity=".6" transform="matrix(.990922 -.134437 .135201 .990818 33.9214 55.477)"/><path d="m0 0h98.5936v78.6558h-98.5936z" fill="#ad91d2" transform="matrix(.990922 -.134437 .135201 .990818 46.6826 148.997)"/><path d="m139.695 192.603c.794 5.823-3.296 11.188-9.139 11.981-5.842.792-11.221-3.288-12.016-9.111-.794-5.822 3.296-11.187 9.139-11.98 5.842-.792 11.221 3.288 12.016 9.11z" fill="#fff" stroke="#6e5590"/></g><rect height="265.43" rx="7" shape-rendering="crispEdges" stroke="#6e5590" stroke-width="2" transform="matrix(.990922 -.134437 .135201 .990818 21.0546 -37.8841)" width="96.5936" x="1.12612" y=".856381"/></g></g><circle cx="73.1457" cy="185.146" fill="#000" fill-opacity=".1" r="64" stroke="#6e5590" stroke-width="9" transform="matrix(.70710678 -.70710678 .70710678 .70710678 -109.494113 105.949828)"/><path clip-rule="evenodd" d="m109.716 200.548c6.221-16.153 2.817-35.161-10.211-48.189-7.4252-7.425-16.7929-11.724-26.4673-12.897 11.196-.871 22.6904 2.975 31.2533 11.538 13.456 13.455 15.264 34.147 5.425 49.548z" fill="#fff" fill-rule="evenodd"/></svg>