<svg enable-background="new 0 0 35.8 30" viewBox="0 0 35.8 30" xmlns="http://www.w3.org/2000/svg"><path d="m17.9 0 17.9 30h-35.8z" fill="#6e5590"/><path d="m16.3 21.4c-.1-.6-.1-1.1.1-1.6s.4-.9.7-1.3.6-.8.9-1.1.6-.7.8-1 .3-.6.3-1c0-.5-.1-.8-.4-1s-.6-.4-1.1-.4c-.4 0-.8.1-1.1.3s-.6.4-.9.7l-1.8-1.6c.5-.6 1.1-1.1 1.8-1.5s1.5-.5 2.4-.5c.8 0 1.5.1 2.1.4s1.1.7 1.5 1.2c.4.6.6 1.3.6 2.1 0 .5-.1 1-.3 1.5-.2.4-.5.8-.8 1.1-.3.4-.6.7-.9 1.1-.3.3-.6.7-.7 1.1-.2.4-.3.9-.2 1.4h-3zm1.4 5.4c-.6 0-1-.2-1.4-.6s-.5-.9-.5-1.5.2-1.1.5-1.5c.4-.4.8-.6 1.4-.6s1 .2 1.4.6.6.9.6 1.5-.2 1.1-.6 1.5-.8.6-1.4.6z" fill="#fff"/></svg>