<svg width="36" height="35" viewBox="0 0 36 35" fill="none" xmlns="http://www.w3.org/2000/svg">
<path d="M17.8846 0L35.7692 30H0L17.8846 0Z" fill="#6E5590"/>
<path d="M16.2962 21.418C16.2082 20.8167 16.2449 20.2813 16.4062 19.812C16.5675 19.328 16.7875 18.8953 17.0662 18.514C17.3595 18.118 17.6602 17.7587 17.9682 17.436C18.2762 17.0987 18.5329 16.776 18.7382 16.468C18.9582 16.1453 19.0682 15.8227 19.0682 15.5C19.0682 15.0453 18.9289 14.7007 18.6502 14.466C18.3862 14.2313 18.0342 14.114 17.5942 14.114C17.1835 14.114 16.8169 14.2093 16.4942 14.4C16.1862 14.5907 15.8855 14.8327 15.5922 15.126L13.8102 13.498C14.3235 12.8967 14.9395 12.4127 15.6582 12.046C16.3769 11.6793 17.1615 11.496 18.0122 11.496C18.8042 11.496 19.5082 11.628 20.1242 11.892C20.7549 12.156 21.2535 12.5667 21.6202 13.124C21.9869 13.6813 22.1702 14.3927 22.1702 15.258C22.1702 15.8007 22.0602 16.2847 21.8402 16.71C21.6202 17.1207 21.3489 17.502 21.0262 17.854C20.7035 18.206 20.3882 18.558 20.0802 18.91C19.7722 19.2473 19.5229 19.6213 19.3322 20.032C19.1415 20.428 19.0755 20.89 19.1342 21.418H16.2962ZM17.7042 26.764C17.1469 26.764 16.6849 26.5733 16.3182 26.192C15.9515 25.796 15.7682 25.312 15.7682 24.74C15.7682 24.1533 15.9515 23.6693 16.3182 23.288C16.6849 22.892 17.1469 22.694 17.7042 22.694C18.2615 22.694 18.7235 22.892 19.0902 23.288C19.4715 23.6693 19.6622 24.1533 19.6622 24.74C19.6622 25.312 19.4715 25.796 19.0902 26.192C18.7235 26.5733 18.2615 26.764 17.7042 26.764Z" fill="white"/>
</svg>
