<svg fill="none" height="32" viewBox="0 0 30 32" width="30" xmlns="http://www.w3.org/2000/svg"><path clip-rule="evenodd" d="m8.7867 31-8.7867-8.7867v-12.4266l8.7867-8.7867h12.4264l8.7869 8.7869v12.4262l-8.7869 8.7869z" fill="#6e5590" fill-rule="evenodd"/><path d="m13.9457 18.918-.462-6.732-.11-2.926h3.256l-.11 2.926-.462 6.732zm1.056 5.346c-.5573 0-1.0266-.1907-1.408-.572-.3666-.396-.55-.88-.55-1.452 0-.5867.1834-1.0707.55-1.452.3814-.396.8507-.594 1.408-.594.5574 0 1.0194.198 1.386.594.3814.3813.572.8653.572 1.452 0 .572-.1906 1.056-.572 1.452-.3666.3813-.8286.572-1.386.572z" fill="#fff"/></svg>