<svg fill="none" height="32" viewBox="0 0 144 32" width="144" xmlns="http://www.w3.org/2000/svg"><g fill="#6e5590"><path d="m4.97982 7.40174c-5.57875 5.57976-5.578967 14.63746.00024 20.21666 5.57924 5.5793 14.63594 5.5795 20.21474-.0002 5.5787-5.5798 5.5789-14.6374-.0003-20.21673-2.7933-2.80346-6.4504-4.19143-10.1188-4.18519-3.6407-.00116-7.29269 1.39188-10.09588 4.18546z"/><path d="m36.4773 23.4856h3.5763c.2493 1.993 1.6369 2.9898 4.1642 2.9898 1.2333 0 2.1908-.2536 2.8731-.761.6824-.5067 1.0232-1.1891 1.0232-2.0481 0-.6324-.2043-1.1426-.6123-1.5299-.4094-.3873-.946-.6589-1.6098-.8139-.6653-.1565-1.3905-.3259-2.1765-.5096-.7867-.1843-1.5755-.3694-2.3672-.5552-.7917-.1851-1.517-.4552-2.1758-.8111-.6573-.3558-1.1918-.8918-1.6012-1.6093-.4087-.7174-.6138-1.6035-.6138-2.659 0-1.6257.6645-2.9642 1.9928-4.0146 1.3283-1.0512 3.0725-1.57643 5.2318-1.57643 1.9571 0 3.5941.51023 4.9109 1.52993 1.3169 1.0212 2.0465 2.4204 2.1886 4.1997h-3.5054c-.1065-.8296-.4802-1.4828-1.1211-1.9573-.6402-.4737-1.5184-.7117-2.6331-.7117-1.056 0-1.9013.2265-2.5358.6803-.6345.4531-.9518 1.039-.9518 1.7572 0 .4945.1644.9068.4931 1.237.3286.3294.7602.5481 1.294.6567.5337.1079 1.1375.2301 1.8106.3659.6738.1365 1.3619.2758 2.0643.418.7016.1422 1.3904.3452 2.0657.6082.6745.2629 1.2761.5824 1.8034.9589.5266.3766.9532.924 1.279 1.6408.3259.7174.4888 1.5599.4888 2.5289 0 1.8223-.6974 3.2965-2.0915 4.4206-1.3933 1.124-3.2711 1.6864-5.6312 1.6864-2.3608 0-4.1928-.5481-5.4961-1.6457-1.3033-1.0969-2.0164-2.589-2.1372-4.4755z"/><path d="m54.5124 13.2003v-3.0963h2.5088c.3322 0 .6052-.11293.8188-.33875.2137-.22438.3201-.52737.3201-.90683v-4.18256h3.5942v5.39234h5.5519v3.1321h-5.5519v9.7694c0 1.9465.9253 2.9184 2.7759 2.9184h2.5802v3.2386h-3.1675c-1.8978 0-3.3748-.5181-4.4301-1.5571-1.0561-1.0376-1.5842-2.5355-1.5842-4.4935v-9.8758z"/><path d="m73.6192 17.8624h11.1566c-.1186-1.555-.6938-2.7834-1.7263-3.6845-1.0318-.9011-2.3015-1.3521-3.8077-1.3521-1.4705 0-2.7402.4717-3.8077 1.4142-1.0675.9426-1.6727 2.1496-1.8149 3.6224zm-3.897 1.7972c0-1.9816.4151-3.7402 1.2461-5.2766.8295-1.5364 1.9664-2.7198 3.4068-3.5502 1.442-.8296 3.0632-1.24553 4.8667-1.24553 1.4476 0 2.7638.25511 3.9499.76533 1.1861.5102 2.1678 1.2105 2.9452 2.1002.7767.8897 1.3755 1.928 1.7971 3.1135.4208 1.1863.6316 2.4618.6316 3.8267v1.4235h-15.0179c.0715 1.6672.6345 3.0092 1.6906 4.0268 1.0561 1.0162 2.4494 1.525 4.1814 1.525 1.2104 0 2.2922-.2716 3.2475-.8133.9546-.5423 1.622-1.2741 2.0014-2.1945h3.7191c-.498 1.8751-1.5569 3.3851-3.1761 4.5291-1.6191 1.1456-3.5855 1.718-5.8984 1.718-2.8359 0-5.1424-.9347-6.9216-2.8034-1.7791-1.8687-2.6694-4.2505-2.6694-7.1446z"/><path d="m94.986 17.8624h11.157c-.119-1.555-.694-2.7834-1.727-3.6845-1.031-.9011-2.301-1.3521-3.807-1.3521-1.4709 0-2.7406.4717-3.8081 1.4142-1.0675.9426-1.6727 2.1496-1.8149 3.6224zm-3.897 1.7972c0-1.9816.4151-3.7402 1.2461-5.2766.8296-1.5364 1.9664-2.7198 3.4068-3.5502 1.442-.8296 3.0632-1.24553 4.8671-1.24553 1.447 0 2.763.25511 3.949.76533 1.187.5102 2.168 1.2105 2.946 2.1002.776.8897 1.375 1.928 1.797 3.1135.421 1.1863.631 2.4618.631 3.8267v1.4235h-15.0175c.0715 1.6672.6345 3.0092 1.6906 4.0268 1.0561 1.0162 2.4494 1.525 4.1819 1.525 1.21 0 2.292-.2716 3.247-.8133.955-.5423 1.622-1.2741 2.001-2.1945h3.72c-.499 1.8751-1.557 3.3851-3.177 4.5291-1.619 1.1456-3.585 1.718-5.898 1.718-2.8359 0-5.1424-.9347-6.9216-2.8034-1.7791-1.8687-2.6694-4.2505-2.6694-7.1446z"/><path d="m116.365 19.5873c0 1.9751.542 3.5594 1.626 4.7556 1.084 1.1956 2.508 1.793 4.272 1.793 1.777 0 3.198-.6246 4.264-1.873 1.066-1.2491 1.599-2.8077 1.599-4.6756 0-2.0102-.553-3.6016-1.66-4.7736-1.109-1.1712-2.521-1.7572-4.238-1.7572-1.729 0-3.138.6103-4.228 1.8294-1.091 1.2191-1.635 2.7862-1.635 4.7014zm-1.354 7.2574c-1.719-1.8401-2.578-4.2411-2.578-7.2039 0-2.9613.85-5.378 2.552-7.2482 1.702-1.8708 3.884-2.8062 6.55-2.8062.853 0 1.652.11791 2.398.3523.746.2351 1.372.5402 1.875.9161s.903.7189 1.199 1.0305c.296.3108.545.6195.746.9247h.267v-11.01776h3.825v27.33356h-3.754v-2.7048h-.231c-1.504 2.1238-3.554 3.1857-6.147 3.1857-2.749 0-4.982-.9211-6.702-2.762z"/><path d="m143.146 5.97794-.159-2.53183c-.015-.33229-.015-.74319-.031-1.20268h-.047c-.111.38017-.238.88682-.364 1.282l-.775 2.38891h-.886l-.775-2.45251c-.08-.33158-.206-.83823-.301-1.2184h-.047c0 .39589-.016.8075-.033 1.20268l-.157 2.53183h-.823l.317-4.30333h1.281l.744 2.1045c.094.33229.173.64815.284 1.0912h.016c.111-.39589.206-.75891.301-1.07619l.743-2.11951h1.234l.332 4.30333zm-4.651-4.30333v.71174h-1.377v3.59159h-.854v-3.59159h-1.377v-.71174z"/></g><path d="m23.4364 14.7898c-.2651.278-.7796.178-1.0418.0257-.2623-.1522-.3158-.7439-.5073-.9361-.1922-.1929-.6638-.6067-.6638-.6067s-.3616.7239-.5009 1.1448c-.1386.4209-.3537 1.3356-.4002 2.0795-.0464.7432-.3529 1.6743-.3529 1.6743l.0014.0007c-.0021.0058-.0029.0086-.005.0143.1736.1787.6931.6975.951.7689.3109.0872 1.0232.2666 1.3448.5581.3208.2916.08.5267.0214.7482-.0593.223-.3251.8626-.4759 1.1019-.1507.2387-.4087.7432-.5344.9619-.1272.2187-.2908.2987-.2908.2987l-.3023.5017s-.2708-.3788-.3501-.5646c-.0786-.1858-.0522-.6138-.0522-.6138s.3394-.3638.4166-.5174c.0779-.1536-.0693-.343.0765-.4924.1443-.15.5409-.5781.5409-.5781s-.6981-.1786-1.0847-.2629c-.3051-.0679-.8246-.2623-1.0275-.3395-.005.0065-.01.0143-.0143.0207-.0057-.0021-.0093-.0028-.0093-.0028s-.2686.1936-.408.2451c-.1386.0522-.2915.0872-.2915.0872s-.0936 1.1062-.115 1.437c-.02.3309-.1008.6575-.1044 1.2006-.0035.5431.1937 1.2484.4773 1.5378.2837.2887.3609.5045.3609.5045l.5595.6996s-.6453.2001-1.0983.2022c-.4523.0022-.4666.0529-.4666.0529s-.0171-.2115-.07-.3366c-.0521-.1229-.1636-.2808-.3644-.4444-.2008-.163-.1772-.5903-.1543-.9512.0221-.3609-.0179-1.1869-.1972-1.6807-.1808-.4938-.6774-2.2539-.6774-2.2539s-1.0547.0865-2.105-.0093c-1.0504-.095-2.573-.6767-2.573-.6767s-.393.9926-.6153 1.4364c-.2429.4852-.6452 1.0904-.6659 1.4213-.02.3294.3973.899.5823 1.3034.1865.4031.8103.8254 1.154 1.1177.3437.2922.3344.443.3344.443l.4187.5388s-.2293.0636-.623.1001c-.3952.0357-.8418-.0522-.8418-.0522s.0143-.2401-.1207-.4902c-.1344-.2501-.4452-.1179-.5559-.2766-.1108-.1572-.1179-.5202-.2573-.7103-.1271-.1729-.7323-.8203-1.16893-1.2698-.08145.1472-.20864.6774-.21436.7725-.01643.2479.0393.4552.18721.6217.14862.1686.08717.4137.08717.4137l.43731.4023s-.53162.3831-.9139.3602c-.3837-.025-.40228-.11-.40228-.11s.03787-.2452.04859-.4252c.01215-.1808-.09218-.323-.13076-.4395-.03787-.1136 0-.3616 0-.7232 0-.3623-.08074-.9854.03073-1.3191.11075-.3316.31439-.5824.36583-1.0548.02859-.2558.20722-1.3099.20507-1.9744-.06073-.2244-.39584-.9376-.4723-1.202-.22436-.7754.31011-1.7072.55733-2.2317-.55161-.3323-1.17683 2.0752-1.4312 2.9227-.29653.9826-1.14396 3.4715-3.33257 2.7848.60092-.2144 1.02178-.7725 1.13396-1.1312-.44872.1122-.66523.2022-.99391.1122.65808-.2687 1.10538-1.0162 1.64342-1.7036-.28939.0329-.43301-.015-.62736-.1487 1.19112-.1622 1.69129-2.1931 2.10215-2.9098.40942-.7153.85172-1.2027 2.09143-.7332 1.64627-1.2956 3.28687-.3752 4.50157-.2544.2636.0257.4687.035.6416.0365.1615-.1208.5952-.3331.7145-.4953l-.2908-.0114c.6438-.611 1.2326-1.0526 1.2326-1.0526-.1901-.0565-.363-.0279-.7167-.0279.4366-.3423.8403-.7232 1.3784-1.0147l-.8182.1572c.6867-.3444 1.6249-1.1734 2.5209-1.6286-.1279-.0486-.2687-.0521-.5073-.015 1.5834-1.22481 2.3601-1.07618 3.2711-1.14978.0429-.05574.0857-.11291.1307-.16579.2194-.25797.646-.57097.646-.57097l-.2551.95829c.0464.03005.0893.06355.13.10075.1344-.1029.3602-.27369.4409-.31585.1165-.06074.2965-.04931.2965-.04931l-.4701.70746c.1472.2565.2436.5531.3086.7982.0922.3452.1201.6181.2494 1.0798.1301.4602.3737.9054.4809 1.3641.1079.4595-.1415.829-.4094 1.1048z" fill="#fff"/></svg>